<?xml version="1.0" encoding="iso-8859-1"?>
<svg version="1.1" id="Capa_1" xmlns="http://www.w3.org/2000/svg" xmlns:xlink="http://www.w3.org/1999/xlink" x="0px" y="0px"
	 viewBox="0 0 511.999 511.999" style="enable-background:new 0 0 511.999 511.999;" xml:space="preserve">
		<path d="M467.92,218.986l-69.34-8.83c-49.533-6.308-96.117-26.386-134.714-58.065l-46.741-38.362l-0.591-0.398
			c-12.054-8.11-27.305-9.736-40.799-4.351c-13.492,5.385-23.433,17.066-26.589,31.247l-3.043,13.668
			c-2.695,12.107-11.228,21.965-22.823,26.369c-14.175,5.383-30.461,1.381-40.528-9.957l-5.991-6.747
			c-12.222-13.763-31.234-18.431-48.438-11.895C11.117,158.201,0,174.317,0,192.721v139.216c0,15.643,12.727,28.369,28.369,28.369
			h15.432v22.81c0,12.701,10.334,23.035,23.035,23.035h39.325c12.701,0,23.035-10.333,23.035-23.035v-22.81h12.688v22.81
			c0,12.701,10.333,23.035,23.034,23.035h39.326c12.701,0,23.034-10.333,23.034-23.035v-22.81h124.217v22.81
			c0,12.701,10.333,23.035,23.034,23.035h39.325c12.701,0,23.035-10.333,23.035-23.035v-23.103
			c41.981-3.398,75.11-38.625,75.11-81.466v-9.513C512,243.702,493.05,222.186,467.92,218.986z M99.197,376.151h-0.001H73.801
			v-15.844h25.396V376.151z M197.278,376.151h-25.395v-15.844h25.395V376.151z M406.89,376.151h-25.395v-15.844h25.395V376.151z
			 M430.241,330.307h-78.745H227.278h-85.395h-12.688H43.801H30v-10.911h431.971C453.2,326.224,442.191,330.307,430.241,330.307z
			 M482.004,278.548c0,3.721-0.403,7.348-1.153,10.849H30v-96.675c0-8.91,6.87-12.213,8.977-13.012
			c2.104-0.8,9.434-2.894,15.352,3.771l5.991,6.747c12.866,14.489,31.322,22.381,50.103,22.38c7.909,0,15.879-1.401,23.508-4.297
			c21.064-7.999,36.563-25.904,41.457-47.896l3.043-13.667c1.016-4.562,4.087-8.171,8.427-9.903c4.155-1.66,8.654-1.269,12.435,1.06
			l37.235,30.56l-17.2,16.965c-5.898,5.817-5.964,15.314-0.146,21.212c2.936,2.976,6.807,4.467,10.681,4.467
			c3.804,0,7.61-1.438,10.532-4.321l19.917-19.645c3.367,2.411,6.779,4.75,10.236,7.012l-11.216,11.063
			c-5.898,5.817-5.964,15.314-0.146,21.212c2.936,2.976,6.807,4.467,10.681,4.467c3.804,0,7.61-1.438,10.532-4.321l17.027-16.794
			c3.571,1.831,7.18,3.585,10.821,5.268l-6.228,6.142c-5.898,5.817-5.964,15.314-0.146,21.212c2.936,2.976,6.807,4.467,10.681,4.467
			c3.804,0,7.61-1.438,10.532-4.321l15.631-15.418c18.139,6.045,36.909,10.343,56.078,12.784l69.34,8.83
			c10.187,1.297,17.869,10.02,17.869,20.289V278.548z"/>
</svg>
