<?xml version="1.0" encoding="UTF-8"?>
<!DOCTYPE svg PUBLIC "-//W3C//DTD SVG 1.1//EN" "http://www.w3.org/Graphics/SVG/1.1/DTD/svg11.dtd">
<!-- Creator: CorelDRAW X7 -->
<svg xmlns="http://www.w3.org/2000/svg" xml:space="preserve" width="200mm" height="200mm" version="1.1" style="shape-rendering:geometricPrecision; text-rendering:geometricPrecision; image-rendering:optimizeQuality; fill-rule:evenodd; clip-rule:evenodd"
viewBox="0 0 20000 20000"
 xmlns:xlink="http://www.w3.org/1999/xlink">
 <defs>
  <style type="text/css">
   <![CDATA[
    .fil1 {fill:white}
    .fil0 {fill:white;fill-rule:nonzero}
   ]]>
  </style>
 </defs>
 <g id="Слой_x0020_1">
  <metadata id="CorelCorpID_0Corel-Layer"/>
  <g id="_2416827730656">
   <path class="fil0" d="M10000 444c2639,0 5028,1069 6757,2799 1730,1729 2799,4118 2799,6757 0,2639 -1069,5028 -2799,6757 -1729,1730 -4118,2799 -6757,2799 -2639,0 -5028,-1069 -6757,-2799 -1730,-1729 -2799,-4118 -2799,-6757 0,-2639 1069,-5028 2799,-6757 1729,-1730 4118,-2799 6757,-2799zm6246 3310c-1599,-1598 -3807,-2587 -6246,-2587 -2439,0 -4647,989 -6246,2587 -1598,1599 -2587,3807 -2587,6246 0,2439 989,4647 2587,6246 1599,1598 3807,2587 6246,2587 2439,0 4647,-989 6246,-2587 1598,-1599 2587,-3807 2587,-6246 0,-2439 -989,-4647 -2587,-6246z"/>
   <path class="fil1" d="M13304 6713c-626,-3111 -1928,-5006 -4990,-5736 -357,43 -708,104 -1053,183 3606,336 5230,3536 5623,7119 2189,-2325 2935,-4283 2041,-5825 -181,-114 -367,-222 -556,-325 549,997 463,1951 83,2827 0,0 0,0 0,1 -237,592 -621,1190 -1148,1756z"/>
   <path class="fil1" d="M6713 6696c-3111,626 -5006,1928 -5736,4990 43,357 104,709 183,1053 336,-3606 3536,-5230 7119,-5623 -2325,-2189 -4283,-2935 -5825,-2041 -114,181 -222,367 -325,556 997,-549 1951,-463 2827,-83 0,0 0,0 1,0 592,237 1190,621 1756,1148z"/>
   <path class="fil1" d="M6696 13287c626,3111 1928,5006 4990,5736 357,-43 709,-104 1053,-183 -3606,-336 -5230,-3536 -5623,-7119 -2189,2325 -2935,4283 -2041,5825 181,114 367,222 556,325 -549,-997 -463,-1951 -83,-2827 0,0 0,0 0,-1 237,-592 621,-1190 1148,-1756z"/>
   <path class="fil1" d="M13287 13304c3111,-626 5006,-1928 5736,-4990 -43,-357 -104,-708 -183,-1053 -336,3606 -3536,5230 -7119,5623 2325,2189 4283,2935 5825,2041 114,-181 222,-367 325,-556 -997,549 -1951,463 -2827,83 0,0 0,0 -1,0 -592,-237 -1190,-621 -1756,-1148z"/>
  </g>
  <path class="fil0" d="M27527 4919c1403,0 2673,569 3593,1488 919,920 1488,2190 1488,3593 0,1403 -569,2673 -1488,3593 -920,919 -2190,1488 -3593,1488 -1403,0 -2673,-569 -3593,-1488 -919,-920 -1488,-2190 -1488,-3593 0,-1403 569,-2673 1488,-3593 920,-919 2190,-1488 3593,-1488zm3321 1760c-850,-849 -2024,-1375 -3321,-1375 -1297,0 -2471,526 -3320,1375 -850,850 -1376,2024 -1376,3321 0,1297 526,2471 1376,3321 849,849 2023,1375 3320,1375 1297,0 2471,-526 3321,-1375 849,-850 1375,-2024 1375,-3321 0,-1297 -526,-2471 -1375,-3321z"/>
 </g>
</svg>
