
<?xml version="1.0" encoding="UTF-8"?>
<!DOCTYPE svg PUBLIC "-//W3C//DTD SVG 1.1//EN" "http://www.w3.org/Graphics/SVG/1.1/DTD/svg11.dtd">
<!-- Creator: CorelDRAW X7 -->
<svg xmlns="http://www.w3.org/2000/svg" xml:space="preserve" width="200mm" height="200mm" version="1.1" style="shape-rendering:geometricPrecision; text-rendering:geometricPrecision; image-rendering:optimizeQuality; fill-rule:evenodd; clip-rule:evenodd"
viewBox="0 0 20000 20000"
 xmlns:xlink="http://www.w3.org/1999/xlink">
 <defs>
  <style type="text/css">
   <![CDATA[
    .str0 {stroke:white;stroke-width:75}
    .fil0 {fill:white;fill-rule:nonzero}
   ]]>
  </style>
 </defs>
 <g id="Слой_x0020_1">
  <metadata id="CorelCorpID_0Corel-Layer"/>
  <g id="_2416719638160">
   <path class="fil0 str0" d="M8096 12936c-185,-285 -431,-952 -638,-1661 -205,-697 -370,-1425 -405,-1867 332,-281 1275,-1056 2037,-1613 451,-329 820,-577 909,-576l4 0 4 0c88,-1 457,247 908,576 762,557 1705,1332 2037,1613 -34,442 -200,1170 -404,1867 -208,709 -454,1376 -639,1661 -257,147 -3555,147 -3813,0zm1907 -6104l-1 0c-185,-2 -631,278 -1141,650 -835,610 -1891,1485 -2134,1695l-70 61 4 93c17,460 198,1280 424,2054 225,766 499,1495 709,1799l14 20 18 15c339,296 4014,296 4353,0l18 -15 14 -20c211,-304 484,-1033 709,-1799 227,-774 407,-1594 425,-2054l3 -93 -70 -61c-242,-210 -1299,-1085 -2133,-1695 -510,-372 -957,-652 -1142,-650l0 0z"/>
   <path class="fil0" d="M9994 4414c-1218,-725 -2147,-1191 -3549,-1413 210,-511 584,-924 867,-1280 130,-163 99,-269 274,-448l386 265c-313,320 -667,714 -877,1112 1040,208 1987,628 2899,1160 912,-532 1859,-952 2899,-1160 -210,-398 -564,-792 -877,-1112l386 -265c175,179 144,285 274,448 283,356 657,769 867,1280 -1402,222 -2331,688 -3549,1413z"/>
   <path class="fil0" d="M4557 8376c-1065,935 -1795,1674 -2440,2939 -420,-358 -697,-841 -949,-1221 -115,-173 -225,-176 -342,-399l372 -285c207,397 473,855 787,1178 518,-925 1211,-1695 1999,-2398 -224,-1033 -332,-2063 -208,-3116 -443,77 -927,291 -1328,491l-133 -449c224,-112 315,-50 510,-123 427,-158 935,-387 1485,-429 -221,1403 -65,2430 247,3812z"/>
   <path class="fil0" d="M6646 14771c560,1302 1037,2225 2041,3229 -470,290 -1016,403 -1454,526 -201,56 -238,159 -485,201l-156 -441c441,-75 959,-186 1363,-384 -720,-780 -1238,-1676 -1664,-2643 -1051,-106 -2063,-322 -3027,-765 -64,445 -9,972 56,1415l-468 -12c-37,-248 50,-316 42,-524 -19,-455 -80,-1009 50,-1545 1266,644 2291,813 3702,943z"/>
   <path class="fil0" d="M13373 14761c1412,-130 2437,-299 3702,-943 130,536 70,1090 51,1545 -9,208 78,276 41,523l-468 13c66,-443 120,-970 56,-1415 -963,443 -1976,659 -3027,765 -426,967 -944,1863 -1663,2642 403,199 921,310 1363,385l-157 441c-247,-42 -284,-145 -485,-201 -438,-123 -984,-237 -1453,-526 1003,-1004 1481,-1927 2040,-3229z"/>
   <path class="fil0" d="M15443 8360c312,-1383 468,-2410 247,-3812 550,42 1058,270 1485,429 195,73 286,11 510,122l-133 449c-401,-199 -885,-413 -1328,-490 124,1053 16,2083 -208,3115 788,704 1481,1474 1999,2399 314,-323 580,-781 787,-1178l372 285c-117,222 -227,226 -342,399 -252,379 -529,863 -949,1220 -645,-1265 -1375,-2004 -2440,-2938z"/>
  </g>
  <path class="fil0" d="M10000 444c2639,0 5028,1069 6757,2799 1730,1729 2799,4118 2799,6757 0,2639 -1069,5028 -2799,6757 -1729,1730 -4118,2799 -6757,2799 -2639,0 -5028,-1069 -6757,-2799 -1730,-1729 -2799,-4118 -2799,-6757 0,-2639 1069,-5028 2799,-6757 1729,-1730 4118,-2799 6757,-2799zm6246 3310c-1599,-1598 -3807,-2587 -6246,-2587 -2439,0 -4647,989 -6246,2587 -1598,1599 -2587,3807 -2587,6246 0,2439 989,4647 2587,6246 1599,1598 3807,2587 6246,2587 2439,0 4647,-989 6246,-2587 1598,-1599 2587,-3807 2587,-6246 0,-2439 -989,-4647 -2587,-6246z"/>
 </g>
</svg>
