<?xml version="1.0" encoding="iso-8859-1"?>
<svg version="1.1" id="Capa_1" xmlns="http://www.w3.org/2000/svg" xmlns:xlink="http://www.w3.org/1999/xlink" x="0px" y="0px"
	 viewBox="0 0 512 512" style="enable-background:new 0 0 512 512;" xml:space="preserve">
		<g>
			<path d="M405.333,149.333C405.333,66.99,338.344,0,256,0S106.667,66.99,106.667,149.333c0,71.311,53.411,174.203,129.671,189.78
				l-20.868,27.824c-2.427,3.229-2.813,7.552-1.01,11.167c1.813,3.615,5.5,5.896,9.542,5.896h20.382
				c-1.326,6.827-3.98,10.424-7.382,14.667c-5.792,7.25-13,16.26-13,38.667s7.208,31.417,13,38.667
				c4.844,6.042,8.333,10.406,8.333,25.333c0,5.896,4.771,10.667,10.667,10.667s10.667-4.771,10.667-10.667
				c0-22.406-7.208-31.417-13-38.667c-4.844-6.042-8.333-10.406-8.333-25.333c0-14.927,3.49-19.292,8.333-25.333
				c4.756-5.954,10.405-13.225,12.294-28H288c4.042,0,7.729-2.281,9.542-5.896c1.802-3.615,1.417-7.938-1.01-11.167l-20.868-27.824
				C351.922,323.536,405.333,220.645,405.333,149.333z M218.083,72.896c-29.25,14.563-47.417,43.854-47.417,76.438
				c0,5.896-4.771,10.667-10.667,10.667s-10.667-4.771-10.667-10.667c0-40.729,22.698-77.333,59.25-95.542
				c5.271-2.625,11.677-0.469,14.302,4.802S223.365,70.271,218.083,72.896z"/>
			<path d="M469.333,56.958c0-7.406,2.948-10.615,7.844-15.917c5.688-6.177,13.49-14.635,13.49-30.375
				C490.667,4.771,485.896,0,480,0c-5.896,0-10.667,4.771-10.667,10.667c0,7.406-2.948,10.615-7.844,15.917
				C455.802,32.76,448,41.219,448,56.958c0,15.74,7.802,24.198,13.49,30.375c4.896,5.302,7.844,8.51,7.844,15.906
				c0,7.385-2.948,10.583-7.844,15.875c-5.688,6.177-13.49,14.625-13.49,30.344c0,5.896,4.771,10.667,10.667,10.667
				s10.667-4.771,10.667-10.667c0-7.375,2.948-10.573,7.833-15.865c5.698-6.177,13.5-14.625,13.5-30.354
				c0-15.729-7.792-24.188-13.49-30.365C472.281,67.573,469.333,64.365,469.333,56.958z"/>
			<circle cx="405.333" cy="341.333" r="21.333"/>
			<circle cx="149.333" cy="426.667" r="21.333"/>
			<circle cx="53.333" cy="32" r="32"/>
		</g>
</svg>
