<?xml version="1.0" encoding="UTF-8"?>
<!DOCTYPE svg PUBLIC "-//W3C//DTD SVG 1.1//EN" "http://www.w3.org/Graphics/SVG/1.1/DTD/svg11.dtd">
<!-- Creator: CorelDRAW X7 -->
<svg xmlns="http://www.w3.org/2000/svg" xml:space="preserve" width="200mm" height="200mm" version="1.1" style="shape-rendering:geometricPrecision; text-rendering:geometricPrecision; image-rendering:optimizeQuality; fill-rule:evenodd; clip-rule:evenodd"
viewBox="0 0 20000 20000"
 xmlns:xlink="http://www.w3.org/1999/xlink">
 <defs>
  <style type="text/css">
   <![CDATA[
    .fil0 {fill:white;fill-rule:nonzero}
   ]]>
  </style>
 </defs>
 <g id="Слой_x0020_1">
  <metadata id="CorelCorpID_0Corel-Layer"/>
  <g id="_2416827736832">
   <path class="fil0" d="M452 10394c-109,-2637 861,-5068 2518,-6867 1656,-1799 4000,-2966 6636,-3075 2637,-109 5068,861 6867,2518 1799,1657 2966,4000 3075,6636 109,2637 -861,5068 -2518,6867 -1656,1799 -3999,2966 -6636,3075 -2637,109 -5068,-861 -6867,-2518 -1799,-1656 -2966,-3999 -3075,-6636zm3095 -6336c-1521,1652 -2411,3883 -2311,6304 99,2420 1171,4571 2822,6091 1652,1521 3883,2411 6304,2311 2420,-99 4571,-1171 6091,-2822 1521,-1652 2411,-3883 2311,-6304 -99,-2420 -1171,-4571 -2822,-6091 -1652,-1521 -3883,-2411 -6304,-2311 -2420,99 -4571,1171 -6091,2822z"/>
   <path class="fil0" d="M2615 4569c604,4559 8546,12037 12796,12336 741,27 367,-450 603,472 -237,62 -579,-23 -857,-33 -4878,-289 -13085,-8158 -12802,-12958l260 183z"/>
   <path class="fil0" d="M2168 15186c-235,-4767 8821,-11634 13517,-11866 575,-28 960,-96 1305,173 -862,1108 -415,123 -947,149 -3772,186 -13677,7640 -13499,11249l-376 295z"/>
   <path class="fil0" d="M19148 10605c-4125,-49 -9530,984 -12578,-2062l-17 -21c-64,-74 -122,-143 -172,-207 -1865,-2908 -112,-5374 1919,-7207 911,-792 938,-186 212,445 -1198,1042 -1825,2215 -2135,3289 -296,1025 -126,2044 618,2991 45,56 88,108 129,157 2766,2763 8217,2135 12028,2180l-4 435z"/>
   <path class="fil0" d="M831 9629c1532,-83 2306,608 3178,1754 1548,1931 2679,6687 3928,7342l251 476c-2207,-1156 -2957,-5044 -4790,-7330l-4 -7c-601,-790 -1454,-1950 -2544,-1891l-19 -344z"/>
  </g>
 </g>
</svg>
