<svg width="18" height="18" viewBox="0 0 18 18" xmlns="http://www.w3.org/2000/svg">
<path d="M14.25 3H13.5V2.25C13.5 1.8375 13.1625 1.5 12.75 1.5C12.3375 1.5 12 1.8375 12 2.25V3H6V2.25C6 1.8375 5.6625 1.5 5.25 1.5C4.8375 1.5 4.5 1.8375 4.5 2.25V3H3.75C2.9175 3 2.2575 3.675 2.2575 4.5L2.25 15C2.25 15.3978 2.40804 15.7794 2.68934 16.0607C2.97064 16.342 3.35218 16.5 3.75 16.5H14.25C15.075 16.5 15.75 15.825 15.75 15V4.5C15.75 3.675 15.075 3 14.25 3ZM14.25 14.25C14.25 14.6625 13.9125 15 13.5 15H4.5C4.0875 15 3.75 14.6625 3.75 14.25V6.75H14.25V14.25ZM5.25 8.25H6.75V9.75H5.25V8.25ZM8.25 8.25H9.75V9.75H8.25V8.25ZM11.25 8.25H12.75V9.75H11.25V8.25Z"/>
</svg>
