<?xml version="1.0" encoding="utf-8"?>
<svg version="1.1"
	 id="svg2"
	 xmlns="http://www.w3.org/2000/svg" xmlns:xlink="http://www.w3.org/1999/xlink" x="0px" y="0px" viewBox="0 0 92.2 91.6"
	 style="enable-background:new 0 0 92.2 91.6;" xml:space="preserve">
<path id="path6"  d="M46.5,51.5c10,2.8,17.5,4.1,17.5,4.1c-4.3-4.3-8.1-8.7-11.5-12.9
	c5.8-8.2,10.4-13.9,10.4-13.9c-6.2,1.4-12,3-17.2,4.7c-5-7.1-7.7-12.1-7.7-12.1c-1.4,5.3-2.1,10.7-2.4,15.7
	C27.4,40.4,22.2,43,22.2,43c4.5,2,9.1,3.8,13.6,5.3c0.7,9.7,2.7,16.4,2.7,16.4C41,60.2,43.8,55.7,46.5,51.5"/>
<path id="path8"  d="M92.2,49c-1.4,2.1-3.4,3.6-5.9,4.7c-0.3-6.8-1.4-12.9-1.4-12.9
	c-2.1,5.6-4.3,10.6-6.4,14.9C71.2,56.7,64,55.6,64,55.6c3.9,4.7,7,7.5,9.5,9.4c-3.7,6.3-6.4,9.6-6.4,9.6c5.2-1.2,9.3-3.2,12.6-5.5
	c1.3,0.9,2.5,2,3.6,3.7c0,0,2.1-3,2.8-10C91.4,56,92.2,49,92.2,49"/>
<path id="path10"  d="M89.8,30.1c-2.3-5.3-5.7-9.2-9.4-12.2c-3.1-6.6-6.7-9.6-6.7-9.6
	c0.3,1.5,0.1,3.2-0.5,5c-7.8-3.9-14.9-4.4-14.9-4.4c4.5,3,8.6,6.7,12,10.5c-3.2,5.2-7.4,9.6-7.4,9.6c5.5-1.3,10-1.8,13.6-1.9
	c5.5,7.6,8.4,13.9,8.4,13.9c0.1-5.1-0.4-9.6-1.3-13.4C88.3,28.3,89.8,30.1,89.8,30.1"/>
<path id="path12"  d="M58.3,8.8c-3.8-1.9-7.4-3.2-10.8-4.1c4.3-3.6,8.3-4.5,8.3-4.5
	C48.9-0.1,43,1.1,38,3c-7.4-0.6-12.1,0.7-12.1,0.7c1.1,0.8,2,2.3,3,4.1c-6.3,4.3-9.4,8.7-9.4,8.7c3.8-1.9,7.8-3.3,11.7-4.4
	c0.4,0.8,0.9,1.6,1.4,2.3c2.6,4.1,5.5,6.9,5.5,6.9c1-4.9,2.8-8.7,4.8-11.6C51.6,8.6,58.3,8.8,58.3,8.8"/>
<path id="path14"  d="M10.7,23.8c2.4-2.3,5.2-4.7,8.7-7.3c0,0-3.2,0-6.6,0.9
	C15.1,12,17.6,9,17.6,9S3.3,19.1,0.6,37.4c0,0,1.2-3.3,5.3-8.3C7.5,32.7,9.3,35,9.3,35C9.4,30.8,9.9,27.1,10.7,23.8"/>
<path id="path16"  d="M22.2,43c-5,0.2-8.8,0.6-11.9,1.1c-0.9-5.3-1-9.1-1-9.1
	c-2.4,3.7-4,7.3-5,10.7C0.9,47,0,48.2,0,48.2c0.5,1.8,1.6,3.6,3,5.3c-0.4,7.9,2.1,13.2,2.1,13.2c0.6-2.8,1.7-5.5,3.2-8
	c4.2,3.4,8.4,5.6,8.4,5.6c-2-3.5-3.4-7.5-4.5-11.3C17,47,22.2,43,22.2,43"/>
<path id="path18"  d="M46.7,83.6c0,0-4.2-1.7-10.1-5c0.2-3.6,0.8-8.1,1.9-13.9
	c0,0-4.7,4.7-10.9,8.3c-3.6-2.5-7.3-5.3-10.9-8.7c0,0,1.8,5.5,5.2,11.5c-3.2,1.2-6.6,1.8-9.6,1c0,0,3.6,4.5,14.7,6.4
	c3.1,3.7,6.8,6.7,11.2,7.7c0,0-1.3-1.4-1.6-6.9C39.6,84.1,43,83.9,46.7,83.6"/>
<path id="path20"  d="M66.8,83.1c1-4.4,0.2-8.5,0.2-8.5c-2.8,4-5.6,7.1-8.1,9.5
	c-6.9,0.4-12.2-0.5-12.2-0.5s3.1,3.1,6.6,4.8c-4.7,2.9-7.8,3.1-7.8,3.1C66,92,78.2,78.7,78.2,78.7C74.8,80.9,70.8,82.3,66.8,83.1"/>
</svg>
