<svg width="17" height="17" viewBox="0 0 17 17"  xmlns="http://www.w3.org/2000/svg">
<path d="M8.5 1.0625C4.39277 1.0625 1.0625 4.39277 1.0625 8.5C1.0625 12.6072 4.39277 15.9375 8.5 15.9375C12.6072 15.9375 15.9375 12.6072 15.9375 8.5C15.9375 4.39277 12.6072 1.0625 8.5 1.0625ZM8.5 14.6758C5.09004 14.6758 2.32422 11.91 2.32422 8.5C2.32422 5.09004 5.09004 2.32422 8.5 2.32422C11.91 2.32422 14.6758 5.09004 14.6758 8.5C14.6758 11.91 11.91 14.6758 8.5 14.6758ZM8.59297 5.83213C9.47285 5.83213 10.0705 6.39326 10.1369 7.2167C10.1419 7.28643 10.2 7.33955 10.2697 7.33955H11.211C11.2542 7.33955 11.2891 7.30469 11.2891 7.26152C11.2891 5.82217 10.1535 4.81445 8.58799 4.81445C6.76348 4.81445 5.71094 6.04629 5.71094 8.08164V8.9499C5.71094 10.9703 6.76348 12.1855 8.58799 12.1855C10.1485 12.1855 11.2891 11.2094 11.2891 9.83809C11.2891 9.79492 11.2542 9.76006 11.211 9.76006H10.2681C10.1983 9.76006 10.1419 9.81318 10.1353 9.88125C10.0655 10.6466 9.46953 11.1729 8.59131 11.1729C7.50723 11.1729 6.89629 10.3776 6.89629 8.95488V8.08164C6.89795 6.6373 7.51055 5.83213 8.59297 5.83213Z"/>
</svg>
