<svg width="27" height="37" viewBox="0 0 27 37" xmlns="http://www.w3.org/2000/svg">
<path d="M1.944 36H25.0714C26.1347 36 27 35.1347 27 34.0714V9.64286C27 9.61329 26.9871 9.58757 26.9833 9.55929C26.9797 9.53234 26.9741 9.50569 26.9666 9.47957C26.9414 9.36999 26.8872 9.26919 26.8097 9.18771L17.811 0.189C17.709 0.0926729 17.5787 0.0318021 17.4394 0.0154286C17.4124 0.0128571 17.3867 0 17.3571 0H1.93629C0.869143 0 0 0.865286 0 1.92857V34.0714C0 35.1347 0.871714 36 1.944 36ZM18 2.19471L24.8053 9H18.6429C18.4724 9 18.3088 8.93227 18.1883 8.81171C18.0677 8.69115 18 8.52764 18 8.35714V2.19471ZM1.28571 1.92857C1.28571 1.57371 1.57757 1.28571 1.93629 1.28571H16.7143V8.35714C16.7143 9.42043 17.5796 10.2857 18.6429 10.2857H25.7143V34.0714C25.7143 34.2419 25.6466 34.4054 25.526 34.526C25.4054 34.6466 25.2419 34.7143 25.0714 34.7143H1.944C1.85856 34.7153 1.77376 34.6995 1.69444 34.6677C1.61512 34.636 1.54283 34.5889 1.4817 34.5292C1.42058 34.4695 1.3718 34.3984 1.33818 34.3198C1.30455 34.2413 1.28672 34.1569 1.28571 34.0714V1.92857Z" />
<path d="M5.78544 15.4285H21.214C21.3845 15.4285 21.548 15.3608 21.6686 15.2402C21.7891 15.1197 21.8569 14.9562 21.8569 14.7857C21.8569 14.6152 21.7891 14.4517 21.6686 14.3311C21.548 14.2106 21.3845 14.1428 21.214 14.1428H5.78544C5.61494 14.1428 5.45143 14.2106 5.33087 14.3311C5.21031 14.4517 5.14258 14.6152 5.14258 14.7857C5.14258 14.9562 5.21031 15.1197 5.33087 15.2402C5.45143 15.3608 5.61494 15.4285 5.78544 15.4285Z" />
<path d="M1.03846 20.29H25.9615C26.237 20.29 26.5011 20.222 26.6958 20.1011C26.8906 19.9801 27 19.8161 27 19.645C27 19.4739 26.8906 19.3099 26.6958 19.1889C26.5011 19.068 26.237 19 25.9615 19H1.03846C0.763044 19 0.498908 19.068 0.304159 19.1889C0.109409 19.3099 0 19.4739 0 19.645C0 19.8161 0.109409 19.9801 0.304159 20.1011C0.498908 20.222 0.763044 20.29 1.03846 20.29Z"/>
<path d="M5.78544 10.2857H12.214C12.3845 10.2857 12.548 10.218 12.6686 10.0974C12.7891 9.97687 12.8569 9.81335 12.8569 9.64286C12.8569 9.47236 12.7891 9.30885 12.6686 9.18829C12.548 9.06773 12.3845 9 12.214 9H5.78544C5.61494 9 5.45143 9.06773 5.33087 9.18829C5.21031 9.30885 5.14258 9.47236 5.14258 9.64286C5.14258 9.81335 5.21031 9.97687 5.33087 10.0974C5.45143 10.218 5.61494 10.2857 5.78544 10.2857Z"/>
<path d="M9.63096 26.764C9.63096 27.2113 9.5283 27.622 9.32296 27.996C9.11763 28.3627 8.8023 28.6597 8.37696 28.887C7.95163 29.1143 7.42363 29.228 6.79297 29.228H5.62696V32H3.74596V24.278H6.79297C7.40896 24.278 7.92963 24.3843 8.35497 24.597C8.7803 24.8097 9.0993 25.103 9.31197 25.477C9.52463 25.851 9.63096 26.28 9.63096 26.764ZM6.64996 27.732C7.0093 27.732 7.27697 27.6477 7.45297 27.479C7.62896 27.3103 7.71696 27.072 7.71696 26.764C7.71696 26.456 7.62896 26.2177 7.45297 26.049C7.27697 25.8803 7.0093 25.796 6.64996 25.796H5.62696V27.732H6.64996ZM13.5032 24.278C14.3172 24.278 15.0286 24.4393 15.6372 24.762C16.2459 25.0847 16.7152 25.5393 17.0452 26.126C17.3826 26.7053 17.5512 27.3763 17.5512 28.139C17.5512 28.8943 17.3826 29.5653 17.0452 30.152C16.7152 30.7387 16.2422 31.1933 15.6262 31.516C15.0176 31.8387 14.3099 32 13.5032 32H10.6102V24.278H13.5032ZM13.3822 30.372C14.0936 30.372 14.6472 30.1777 15.0432 29.789C15.4392 29.4003 15.6372 28.8503 15.6372 28.139C15.6372 27.4277 15.4392 26.874 15.0432 26.478C14.6472 26.082 14.0936 25.884 13.3822 25.884H12.4912V30.372H13.3822ZM23.6294 24.278V25.785H20.4834V27.413H22.8374V28.876H20.4834V32H18.6024V24.278H23.6294Z" />
</svg>
