<svg width="27" height="36" viewBox="0 0 27 36"  xmlns="http://www.w3.org/2000/svg">
<path d="M1.944 36H25.0714C26.1347 36 27 35.1347 27 34.0714V9.64286C27 9.61329 26.9871 9.58757 26.9833 9.55929C26.9797 9.53234 26.9741 9.50569 26.9666 9.47957C26.9414 9.36999 26.8872 9.26919 26.8097 9.18771L17.811 0.189C17.709 0.0926729 17.5787 0.0318021 17.4394 0.0154286C17.4124 0.0128571 17.3867 0 17.3571 0H1.93629C0.869143 0 0 0.865286 0 1.92857V34.0714C0 35.1347 0.871714 36 1.944 36ZM18 2.19471L24.8053 9H18.6429C18.4724 9 18.3088 8.93227 18.1883 8.81171C18.0677 8.69115 18 8.52764 18 8.35714V2.19471ZM1.28571 1.92857C1.28571 1.57371 1.57757 1.28571 1.93629 1.28571H16.7143V8.35714C16.7143 9.42043 17.5796 10.2857 18.6429 10.2857H25.7143V34.0714C25.7143 34.2419 25.6466 34.4054 25.526 34.526C25.4054 34.6466 25.2419 34.7143 25.0714 34.7143H1.944C1.85856 34.7153 1.77376 34.6995 1.69444 34.6677C1.61512 34.636 1.54283 34.5889 1.4817 34.5292C1.42058 34.4695 1.3718 34.3984 1.33818 34.3198C1.30455 34.2413 1.28672 34.1569 1.28571 34.0714V1.92857Z"/>
<path d="M5.78544 15.4285H21.214C21.3845 15.4285 21.548 15.3608 21.6686 15.2402C21.7891 15.1197 21.8569 14.9562 21.8569 14.7857C21.8569 14.6152 21.7891 14.4517 21.6686 14.3311C21.548 14.2106 21.3845 14.1428 21.214 14.1428H5.78544C5.61494 14.1428 5.45143 14.2106 5.33087 14.3311C5.21031 14.4517 5.14258 14.6152 5.14258 14.7857C5.14258 14.9562 5.21031 15.1197 5.33087 15.2402C5.45143 15.3608 5.61494 15.4285 5.78544 15.4285Z"/>
<path d="M5.78544 20.5715H21.214C21.3845 20.5715 21.548 20.5038 21.6686 20.3832C21.7891 20.2626 21.8569 20.0991 21.8569 19.9286C21.8569 19.7581 21.7891 19.5946 21.6686 19.4741C21.548 19.3535 21.3845 19.2858 21.214 19.2858H5.78544C5.61494 19.2858 5.45143 19.3535 5.33087 19.4741C5.21031 19.5946 5.14258 19.7581 5.14258 19.9286C5.14258 20.0991 5.21031 20.2626 5.33087 20.3832C5.45143 20.5038 5.61494 20.5715 5.78544 20.5715Z"/>
<path d="M5.78544 10.2857H12.214C12.3845 10.2857 12.548 10.218 12.6686 10.0974C12.7891 9.97687 12.8569 9.81335 12.8569 9.64286C12.8569 9.47236 12.7891 9.30885 12.6686 9.18829C12.548 9.06773 12.3845 9 12.214 9H5.78544C5.61494 9 5.45143 9.06773 5.33087 9.18829C5.21031 9.30885 5.14258 9.47236 5.14258 9.64286C5.14258 9.81335 5.21031 9.97687 5.33087 10.0974C5.45143 10.218 5.61494 10.2857 5.78544 10.2857Z"/>
<path d="M5.78544 25.7143H21.214C21.3845 25.7143 21.548 25.6466 21.6686 25.526C21.7891 25.4055 21.8569 25.2419 21.8569 25.0714C21.8569 24.9009 21.7891 24.7374 21.6686 24.6169C21.548 24.4963 21.3845 24.4286 21.214 24.4286H5.78544C5.61494 24.4286 5.45143 24.4963 5.33087 24.6169C5.21031 24.7374 5.14258 24.9009 5.14258 25.0714C5.14258 25.2419 5.21031 25.4055 5.33087 25.526C5.45143 25.6466 5.61494 25.7143 5.78544 25.7143Z"/>
<path d="M5.78544 30.8571H21.214C21.3845 30.8571 21.548 30.7894 21.6686 30.6688C21.7891 30.5483 21.8569 30.3848 21.8569 30.2143C21.8569 30.0438 21.7891 29.8803 21.6686 29.7597C21.548 29.6391 21.3845 29.5714 21.214 29.5714H5.78544C5.61494 29.5714 5.45143 29.6391 5.33087 29.7597C5.21031 29.8803 5.14258 30.0438 5.14258 30.2143C5.14258 30.3848 5.21031 30.5483 5.33087 30.6688C5.45143 30.7894 5.61494 30.8571 5.78544 30.8571Z"/>
</svg>
