<?xml version="1.0" encoding="utf-8"?>
<svg version="1.1" id="Layer_1" xmlns="http://www.w3.org/2000/svg" xmlns:xlink="http://www.w3.org/1999/xlink" x="0px" y="0px"
	 viewBox="0 0 249.4 249.4" style="enable-background:new 0 0 249.4 249.4;" xml:space="preserve">
<g>
		<radialGradient id="SVGID_1_" cx="126.186" cy="335.746" r="123.186" gradientTransform="matrix(1 0 0 -1 0 462)" gradientUnits="userSpaceOnUse">
		<stop  offset="0.7636" style="stop-color:#EAA822"/>
		<stop  offset="1" style="stop-color:#CC7A29"/>
	</radialGradient>
	<circle style="fill:url(#SVGID_1_)" cx="126.2" cy="126.3" r="123.2"/>
		<linearGradient id="SVGID_2_" gradientUnits="userSpaceOnUse" x1="126.1855" y1="274.5435" x2="126.1855" y2="398.6947" gradientTransform="matrix(1 0 0 -1 0 462)">
		<stop  offset="0" style="stop-color:#EAA822"/>
		<stop  offset="0.3939" style="stop-color:#F1C062"/>
	</linearGradient>
	<path style="fill:url(#SVGID_2_)" d="M126.2,4.4C62.7,4.4,11.3,58.8,11.3,125.8c0,2.7,0.1,5.5,0.3,8.1c23.9,42.6,66.3,71,114.6,71
		c48.3,0,90.8-28.4,114.6-71c0.2-2.7,0.3-5.4,0.3-8.1C241.1,58.8,189.6,4.4,126.2,4.4z"/>
	<g>
		<g>
				<radialGradient id="SVGID_3_" cx="127.9434" cy="339.3164" r="126.9583" gradientTransform="matrix(1 0 0 -1 0 462)" gradientUnits="userSpaceOnUse">
				<stop  offset="0" style="stop-color:#A21D2E"/>
				<stop  offset="1" style="stop-color:#650B1A"/>
			</radialGradient>
			<path style="fill:url(#SVGID_3_)" d="M126.6,3.1c-22.1,0-42.8,5.8-60.7,16c5.5,9.9,16.6,32.3,25.7,66.9c12.7,48.2,33.4,107,75.7,147.6
				c0,0-44.4-75.7-44.4-170.5c0-23,2.4-42.9,5.9-60C128.1,3.1,127.4,3.1,126.6,3.1z"/>
			
				<radialGradient id="SVGID_4_" cx="127.9424" cy="339.3164" r="126.9596" gradientTransform="matrix(1 0 0 -1 0 462)" gradientUnits="userSpaceOnUse">
				<stop  offset="0" style="stop-color:#A21D2E"/>
				<stop  offset="1" style="stop-color:#650B1A"/>
			</radialGradient>
			<path style="fill:url(#SVGID_4_);" d="M147.3,4.8c-1.2,6.5-3.8,18.8-7.9,35c-6.3,24.5-1.7,109.6,10.2,133.7c0,0-5.5-62.3,36.9-154.9
				C174.5,11.9,161.3,7.2,147.3,4.8z"/>
			
				<radialGradient id="SVGID_5_" cx="127.9434" cy="339.3179" r="126.9589" gradientTransform="matrix(1 0 0 -1 0 462)" gradientUnits="userSpaceOnUse">
				<stop  offset="0" style="stop-color:#A21D2E"/>
				<stop  offset="1" style="stop-color:#650B1A"/>
			</radialGradient>
			<path style="fill:url(#SVGID_5_);" d="M121.9,249.4c-2.8-72.6-20.5-109-20.5-109c3.2,49.6-12.3,89.4-17.4,101C95.7,246.1,108.5,248.8,121.9,249.4z
				"/>
			
				<radialGradient id="SVGID_6_" cx="127.9434" cy="339.3193" r="126.9604" gradientTransform="matrix(1 0 0 -1 0 462)" gradientUnits="userSpaceOnUse">
				<stop  offset="0" style="stop-color:#A21D2E"/>
				<stop  offset="1" style="stop-color:#650B1A"/>
			</radialGradient>
			<path style="fill:url(#SVGID_6_);" d="M132.4,249.4c11.7-0.6,22.9-2.8,33.5-6.5c-27.3-23.4-43.5-54.2-43.5-54.2
				C129.5,210.1,131.8,239.8,132.4,249.4z"/>
		</g>
		<path style="fill:#C96F5A;" d="M96.6,84.6C89.6,58,81,32.9,71,16.3c-1.7,0.9-3.4,1.8-5.1,2.7c5.5,9.9,16.6,32.3,25.7,66.9
			c12.2,46.3,31.8,102.3,70.8,142.7C117.3,163.9,104.3,113.9,96.6,84.6z"/>
		<path style="fill:#C96F5A;" d="M145.3,34.7c3.4-15.4,4.5-24.8,4.9-29.3c-1-0.2-1.9-0.4-2.9-0.6c-1.2,6.5-3.8,18.8-7.9,35
			c-6.3,24.5-1.7,109.6,10.2,133.7c0,0-0.8-9.2,0.6-25.8C136.3,98.5,140.6,55.7,145.3,34.7z"/>
		<path style="fill:#C96F5A;" d="M106.4,153.8c-2.9-8.9-5.1-13.3-5.1-13.3c3.2,49.6-12.3,89.4-17.4,101c0.2,0.1,0.4,0.1,0.6,0.2
			C92.9,229.5,107.1,201.8,106.4,153.8z"/>
		<path style="fill:#C96F5A;" d="M132.4,249.4c1.5-0.1,3.1-0.2,4.6-0.3c-0.9-19.7-3.8-36.2-6.1-46.5c-5.5-8.3-8.5-13.9-8.5-13.9
			C129.5,210.1,131.8,239.8,132.4,249.4z"/>
	</g>
	<g>
		<g>
			<path style="fill:#5D0425;" d="M201.7,235.5c0.1,0.2,0.3,0.5,0.4,0.7c-0.5-0.1-1,0-1.3,0.2c-0.4,0.2-0.7,0.6-0.8,1
				c-0.1,0.4-0.1,0.9,0.1,1.3c0.2,0.4,0.5,0.7,1,0.8c0.4,0.1,0.9,0.1,1.3-0.2c0.2-0.1,0.4-0.3,0.5-0.4c0.1-0.1,0.1-0.2,0.2-0.3
				c0.1-0.1,0.1-0.2,0.2-0.4c0.1,0.2,0.3,0.5,0.4,0.7c-0.3,0.4-0.6,0.7-1,0.9c-0.6,0.3-1.2,0.4-1.9,0.3c-0.6-0.2-1.1-0.5-1.4-1.1
				c-0.3-0.5-0.3-1-0.2-1.6c0.2-0.7,0.6-1.2,1.2-1.6C200.9,235.6,201.3,235.5,201.7,235.5z"/>
			<path style="fill:#5D0425;" d="M200.7,241.5c-2.1-0.3-3.4-2.2-3-4.1c0.4-2,2.2-3.3,4.2-3.1c2,0.2,3.5,1.9,3.2,3.9
				C204.9,240.2,202.8,241.7,200.7,241.5L200.7,241.5z M201.9,234.8c-1.7-0.2-3.2,1-3.6,2.6c-0.3,1.7,0.8,3.2,2.5,3.5
				c1.8,0.2,3.5-1.1,3.7-2.8C204.8,236.5,203.6,235,201.9,234.8L201.9,234.8z"/>
		</g>
		<g>
			<path style="fill:#5D0425;" d="M211.4,233.6c0.1,0.2,0.2,0.3,0.3,0.5c-0.9,0.7-1.9,1.3-2.8,2c-0.1-0.1-0.1-0.2-0.2-0.4c0-0.2-0.1-0.5,0-0.8
				c0-0.3,0.1-0.6,0.3-1.1c0.2-0.7,0.3-1.2,0.3-1.5c0-0.3,0-0.6-0.2-0.7c-0.1-0.2-0.3-0.3-0.6-0.3c-0.2,0-0.5,0-0.7,0.2
				c-0.2,0.2-0.4,0.4-0.4,0.6c0,0.2,0,0.5,0.2,0.7c-0.2,0.1-0.4,0.2-0.6,0.3c-0.2-0.4-0.3-0.8-0.2-1.1c0.1-0.4,0.3-0.7,0.7-0.9
				c0.4-0.3,0.8-0.4,1.1-0.3c0.4,0,0.7,0.2,0.9,0.5c0.1,0.2,0.2,0.3,0.2,0.5c0,0.2,0,0.4,0,0.7c0,0.3-0.1,0.7-0.3,1.3
				c-0.1,0.5-0.2,0.8-0.3,0.9c0,0.1,0,0.3,0,0.4C210.1,234.6,210.8,234.1,211.4,233.6z"/>
			<path style="fill:#5D0425;" d="M210.9,231.7c-0.3-0.5-0.6-0.9-0.7-1.2c-0.1-0.4-0.1-0.7,0-1c0.1-0.3,0.3-0.6,0.5-0.8
				c0.2-0.2,0.4-0.3,0.7-0.3c0.2,0,0.4,0,0.7,0c0.2,0.1,0.5,0.2,0.7,0.4c0.2,0.2,0.5,0.5,0.8,0.8c0.4,0.4,0.6,0.8,0.7,1.2
				c0.1,0.3,0.1,0.7,0.1,1c-0.1,0.3-0.3,0.6-0.6,0.8c-0.4,0.3-0.8,0.4-1.2,0.3C212,232.9,211.5,232.4,210.9,231.7z M211.4,231.3
				c0.5,0.6,0.9,1,1.2,1.1c0.3,0.1,0.6,0,0.8-0.1c0.2-0.2,0.3-0.4,0.3-0.8c0-0.3-0.2-0.8-0.7-1.4c-0.5-0.6-0.9-1-1.2-1.1
				c-0.3-0.1-0.6,0-0.8,0.1c-0.2,0.2-0.3,0.4-0.3,0.7C210.7,230.2,211,230.7,211.4,231.3z"/>
			<path style="fill:#5D0425;" d="M214.1,229.3c-0.4-0.4-0.6-0.8-0.7-1.2c-0.1-0.3-0.2-0.7-0.1-1c0.1-0.3,0.2-0.6,0.5-0.8
				c0.2-0.2,0.4-0.3,0.6-0.3c0.2-0.1,0.4,0,0.7,0c0.2,0.1,0.5,0.2,0.7,0.3c0.2,0.2,0.5,0.4,0.8,0.8c0.4,0.4,0.6,0.8,0.8,1.2
				c0.1,0.3,0.2,0.7,0.1,1c-0.1,0.3-0.2,0.6-0.5,0.8c-0.4,0.3-0.8,0.4-1.2,0.4C215.2,230.4,214.6,230,214.1,229.3z M214.6,228.9
				c0.5,0.6,0.9,1,1.2,1c0.3,0.1,0.6,0,0.8-0.2c0.2-0.2,0.3-0.4,0.3-0.8c0-0.3-0.3-0.8-0.8-1.4c-0.5-0.6-0.9-0.9-1.2-1
				c-0.3-0.1-0.6,0-0.8,0.2c-0.2,0.2-0.3,0.4-0.3,0.7C213.8,227.8,214.1,228.3,214.6,228.9z"/>
			<path style="fill:#5D0425;" d="M217.7,226c-0.3,0.1-0.5,0.1-0.7,0.1c-0.2,0-0.4-0.2-0.5-0.3c-0.2-0.3-0.3-0.6-0.3-0.9c0-0.4,0.2-0.7,0.5-1
				c0.3-0.3,0.7-0.4,1-0.4c0.4,0,0.7,0.1,0.9,0.4c0.2,0.2,0.2,0.3,0.3,0.6c0,0.2,0,0.4-0.2,0.7c0.3-0.1,0.6-0.2,0.8-0.1
				c0.3,0,0.5,0.2,0.7,0.4c0.3,0.3,0.4,0.7,0.4,1.1c0,0.4-0.2,0.8-0.6,1.2c-0.4,0.3-0.8,0.5-1.2,0.5c-0.4,0-0.8-0.2-1.1-0.5
				c-0.2-0.2-0.3-0.5-0.3-0.8C217.4,226.5,217.5,226.2,217.7,226z M218.2,227.1c0.1,0.1,0.3,0.2,0.4,0.3c0.2,0.1,0.3,0.1,0.5,0
				c0.2-0.1,0.3-0.1,0.5-0.3c0.2-0.2,0.3-0.4,0.4-0.7c0-0.3-0.1-0.5-0.3-0.7c-0.2-0.2-0.4-0.3-0.7-0.3c-0.3,0-0.5,0.1-0.7,0.3
				c-0.2,0.2-0.3,0.4-0.4,0.7C218,226.6,218,226.9,218.2,227.1z M216.9,225.3c0.2,0.2,0.3,0.3,0.5,0.3c0.2,0,0.4-0.1,0.6-0.2
				c0.2-0.2,0.3-0.3,0.3-0.6c0-0.2-0.1-0.4-0.2-0.5c-0.1-0.2-0.3-0.2-0.5-0.2c-0.2,0-0.4,0.1-0.6,0.2c-0.2,0.2-0.3,0.3-0.3,0.6
				C216.7,225,216.8,225.1,216.9,225.3z"/>
			<path style="fill:#5D0425;" d="M222.1,218.5c0.1-0.2,0.3-0.3,0.4-0.5c0.7,0.6,1.4,1.3,2.1,1.9c0.4,0.3,0.6,0.6,0.7,0.9
				c0.1,0.3,0.2,0.6,0.1,0.9c-0.1,0.3-0.3,0.7-0.6,1.1c-0.3,0.4-0.7,0.6-1,0.7c-0.3,0.1-0.6,0.1-0.9,0s-0.6-0.4-1-0.7
				c-0.7-0.7-1.3-1.3-2-2c0.2-0.2,0.3-0.3,0.5-0.5c0.7,0.7,1.3,1.3,2,2c0.3,0.3,0.5,0.5,0.7,0.6c0.2,0.1,0.4,0.1,0.6,0
				c0.2-0.1,0.4-0.2,0.6-0.4c0.3-0.4,0.5-0.7,0.5-1c0-0.3-0.2-0.7-0.7-1.1C223.5,219.7,222.8,219.1,222.1,218.5z"/>
			<path style="fill:#5D0425;" d="M226.9,220.4c-1.2-1.1-2.4-2.1-3.6-3.2c0.8-0.9,1.6-1.8,2.3-2.7c0.1,0.1,0.3,0.2,0.4,0.4
				c-0.6,0.8-1.3,1.5-1.9,2.2c0.4,0.3,0.7,0.7,1.1,1c0.6-0.7,1.2-1.4,1.8-2.1c0.1,0.1,0.3,0.2,0.4,0.4c-0.6,0.7-1.2,1.4-1.8,2.1
				c0.4,0.4,0.8,0.7,1.2,1.1c0.7-0.8,1.4-1.6,2.1-2.4c0.1,0.1,0.3,0.2,0.4,0.4C228.6,218.5,227.8,219.4,226.9,220.4z"/>
			<path style="fill:#5D0425;" d="M230.1,216.7c-1.3-1-2.5-2-3.8-3c0.7-0.9,1.4-1.7,2.1-2.6c0.2,0.1,0.3,0.2,0.5,0.3c-0.5,0.7-1.1,1.4-1.7,2.1
				c0.4,0.3,0.8,0.6,1.2,0.9c0.5-0.6,1-1.2,1.5-1.9c0.1,0.1,0.3,0.2,0.5,0.3c-0.5,0.6-1,1.3-1.5,1.9c0.6,0.5,1.1,0.9,1.7,1.4
				C230.4,216.3,230.2,216.5,230.1,216.7z"/>
			<path style="fill:#5D0425;" d="M232.2,214c-0.9-1.5-1.8-3-2.7-4.4c0.1-0.2,0.3-0.4,0.4-0.6c1.7,0.4,3.4,0.7,5.2,1c-0.1,0.2-0.3,0.4-0.4,0.7
				c-0.5-0.1-1-0.2-1.5-0.3c-0.4,0.6-0.8,1.2-1.2,1.8c0.3,0.4,0.6,0.9,0.8,1.3C232.5,213.6,232.4,213.8,232.2,214z M231.5,211.6
				c0.3-0.5,0.7-0.9,1-1.4c-0.5-0.1-0.9-0.2-1.4-0.3c-0.4-0.1-0.8-0.2-1-0.3c0.2,0.2,0.4,0.5,0.6,0.8
				C231,210.7,231.2,211.2,231.5,211.6z"/>
			<path style="fill:#5D0425;" d="M236.9,207.1c-1.2-0.7-2.4-1.5-3.6-2.2c-0.3,0.5-0.6,0.9-0.9,1.4c-0.2-0.1-0.3-0.2-0.5-0.3
				c0.7-1.1,1.4-2.2,2.1-3.4c0.2,0.1,0.3,0.2,0.5,0.3c-0.3,0.5-0.6,1-0.9,1.4c1.2,0.7,2.4,1.5,3.6,2.2
				C237.1,206.7,237,206.9,236.9,207.1z"/>
			<path style="fill:#5D0425;" d="M238.5,204.4c-1.4-0.8-2.8-1.6-4.2-2.4c0.2-0.3,0.3-0.6,0.5-0.9c1.2,0.2,2.4,0.4,3.6,0.6
				c0.3,0.1,0.6,0.1,0.7,0.1c-0.1-0.1-0.3-0.3-0.5-0.6c-0.8-0.9-1.6-1.8-2.4-2.7c0.1-0.3,0.3-0.5,0.4-0.8c1.4,0.7,2.9,1.5,4.3,2.2
				c-0.1,0.2-0.2,0.4-0.3,0.6c-1.2-0.6-2.4-1.2-3.6-1.9c1,1.1,1.9,2.1,2.9,3.2c-0.1,0.2-0.2,0.4-0.3,0.6c-1.4-0.2-2.9-0.4-4.3-0.7
				c1.2,0.7,2.4,1.4,3.6,2C238.7,204.1,238.6,204.2,238.5,204.4z"/>
		</g>
	</g>
</g>
</svg>
