<svg width="59" height="57" viewBox="0 0 59 57" fill="none" xmlns="http://www.w3.org/2000/svg">
<path d="M58.4491 23.2873C52.2718 17.5785 46.3754 12.7859 39.8472 8.76865C39.7068 8.69817 39.5664 8.83912 39.5664 9.12104C39.5664 9.12104 39.5664 9.96678 39.6366 10.883C39.7068 11.5878 39.9876 12.2926 40.5491 12.7155C43.4272 14.8298 50.0256 20.9615 52.693 25.0492C52.8334 25.1902 52.8334 25.3311 52.8334 25.4721C52.4824 31.5333 48.6918 42.8804 44.9013 48.0253C44.8311 48.1663 44.4801 48.3777 44.3397 48.2367C32.0554 39.7088 31.9852 22.0186 31.0025 1.36838C30.9323 0.240717 27.7033 -0.534549 27.7033 0.452153C27.2821 21.9482 26.2292 40.2726 14.9276 48.0958C14.7872 48.2367 14.6468 48.0253 14.5065 47.8843C11.1371 43.1623 6.85511 31.5333 6.08295 25.4721C6.08295 25.3311 6.08295 25.2607 6.15315 25.1197C8.53981 21.6663 15.6296 15.1117 18.4374 12.9974C18.999 12.5745 19.35 11.9402 19.35 11.1649C19.35 10.5306 19.35 9.12104 19.35 9.12104C19.35 8.9096 19.2096 8.83912 19.0692 8.9096C11.5582 13.4907 6.36373 17.508 0.116304 23.3577C-0.0240881 23.4987 -0.024087 23.5692 0.0461088 23.7101C1.73081 35.4096 6.78491 47.1796 11.3476 56.4123C11.4178 56.6237 11.6986 56.7647 11.6986 56.7647H47.8495C47.8495 56.7647 48.0601 56.6942 48.1303 56.5532C52.9036 46.8976 56.4836 36.1144 58.5193 23.7101C58.6596 23.4987 58.5895 23.4282 58.4491 23.2873Z" fill="url(#paint0_linear_250:750)"/>
<defs>
<linearGradient id="paint0_linear_250:750" x1="29.2979" y1="0" x2="29.2979" y2="56.7647" gradientUnits="userSpaceOnUse">
<stop stop-color="#DFDFDF"/>
<stop offset="0.497917" stop-color="#E3E9ED"/>
<stop offset="1" stop-color="#858585"/>
</linearGradient>
</defs>
</svg>
