<svg width="30" height="30" viewBox="0 0 30 30" fill="none" xmlns="http://www.w3.org/2000/svg">
<path d="M24.607 4.19971H5.39142C5.07523 4.19971 4.77199 4.32531 4.54841 4.54889C4.32483 4.77248 4.19922 5.07572 4.19922 5.39191V24.6078C4.1993 24.9239 4.32494 25.2271 4.54851 25.4506C4.77208 25.6741 5.07528 25.7997 5.39142 25.7997H15.7363V17.4351H12.9214V14.1753H15.7363V11.7711C15.7363 8.98111 17.4403 7.46221 19.9291 7.46221C21.1213 7.46221 22.1458 7.55071 22.4446 7.59061V10.5063L20.7184 10.5072C19.3648 10.5072 19.1029 11.1504 19.1029 12.0942V14.1756H22.3309L21.9106 17.4354H19.1029V25.7997H24.6073C24.9235 25.7996 25.2266 25.674 25.4501 25.4504C25.6737 25.2268 25.7992 24.9236 25.7992 24.6075V5.39191C25.7992 5.07572 25.6736 4.77248 25.45 4.54889C25.2265 4.32531 24.9232 4.19971 24.607 4.19971Z" fill="url(#paint0_linear_250:609)"/>
<defs>
<linearGradient id="paint0_linear_250:609" x1="4.19922" y1="4.19971" x2="30.2601" y2="14.3798" gradientUnits="userSpaceOnUse">
<stop stop-color="#C9C9C9"/>
<stop offset="0.471875" stop-color="#FEFEFE"/>
<stop offset="1" stop-color="#C9C9C9"/>
</linearGradient>
</defs>
</svg>
