<svg width="25" height="25" viewBox="0 0 25 25" fill="none" xmlns="http://www.w3.org/2000/svg">
<path d="M22.6562 3.90625H2.34375C1.91162 3.90625 1.5625 4.25537 1.5625 4.6875V20.3125C1.5625 20.7446 1.91162 21.0938 2.34375 21.0938H22.6562C23.0884 21.0938 23.4375 20.7446 23.4375 20.3125V4.6875C23.4375 4.25537 23.0884 3.90625 22.6562 3.90625ZM20.6836 6.56494L12.981 12.5586C12.7905 12.7075 12.5244 12.7075 12.334 12.5586L4.62891 6.56494C4.59986 6.54253 4.57856 6.51158 4.56798 6.47645C4.5574 6.44132 4.55809 6.40376 4.56993 6.36904C4.58177 6.33431 4.60419 6.30416 4.63403 6.28282C4.66387 6.26147 4.69964 6.24999 4.73633 6.25H20.5762C20.6129 6.24999 20.6486 6.26147 20.6785 6.28282C20.7083 6.30416 20.7307 6.33431 20.7426 6.36904C20.7544 6.40376 20.7551 6.44132 20.7445 6.47645C20.7339 6.51158 20.7126 6.54253 20.6836 6.56494Z" fill="url(#paint0_linear_250:606)"/>
<defs>
<linearGradient id="paint0_linear_250:606" x1="1.5625" y1="3.90625" x2="25.9537" y2="16.0326" gradientUnits="userSpaceOnUse">
<stop stop-color="#C9C9C9"/>
<stop offset="0.471875" stop-color="#FEFEFE"/>
<stop offset="1" stop-color="#C9C9C9"/>
</linearGradient>
</defs>
</svg>
