<svg width="24" height="24" viewBox="0 0 24 24" fill="none" xmlns="http://www.w3.org/2000/svg">
<path d="M22.8002 20.4002V3.6002C22.8002 2.2802 21.7166 1.2002 20.3942 1.2002H3.6062C2.2262 1.2002 1.2002 2.2238 1.2002 3.6002V20.4002C1.2002 21.7778 2.2262 22.8002 3.6062 22.8002H20.3942C21.031 22.7993 21.6415 22.5463 22.0923 22.0966C22.5432 21.6469 22.7977 21.037 22.8002 20.4002ZM18.221 13.9286C18.221 13.9286 19.5794 15.269 19.9142 15.8906C19.9238 15.9038 19.9274 15.9158 19.931 15.9206C20.0666 16.1486 20.1014 16.3286 20.033 16.4606C19.9202 16.6802 19.5362 16.7906 19.4054 16.8002H17.0066C16.8386 16.8002 16.4906 16.757 16.0682 16.4654C15.7442 16.2398 15.4238 15.8666 15.1118 15.503C14.6462 14.963 14.243 14.495 13.8374 14.495C13.7859 14.4949 13.7348 14.5034 13.6862 14.5202C13.3778 14.6186 12.9866 15.0566 12.9866 16.2266C12.9866 16.5926 12.6986 16.8014 12.4946 16.8014H11.3954C11.021 16.8014 9.071 16.6706 7.3442 14.8478C5.225 12.6158 3.3218 8.1386 3.305 8.099C3.185 7.8098 3.4334 7.6526 3.7034 7.6526H6.1274C6.4526 7.6526 6.557 7.8494 6.6314 8.0258C6.7154 8.2262 7.0322 9.035 7.5506 9.9446C8.3942 11.4242 8.9138 12.0266 9.3278 12.0266C9.40521 12.0262 9.48122 12.0059 9.5486 11.9678C10.0898 11.669 9.989 9.7394 9.965 9.341C9.965 9.2654 9.9638 8.4782 9.6878 8.1002C9.4886 7.8266 9.1514 7.7222 8.9474 7.6826C9.03058 7.56797 9.14004 7.47497 9.2666 7.4114C9.6374 7.2266 10.3058 7.2002 10.9706 7.2002H11.3402C12.0614 7.2098 12.2486 7.2566 12.509 7.3226C13.0358 7.4486 13.0466 7.7906 12.9998 8.9546C12.9866 9.2858 12.9722 9.6614 12.9722 10.1018C12.9722 10.1966 12.9686 10.301 12.9686 10.409C12.9518 11.0042 12.9326 11.6774 13.3526 11.9534C13.407 11.9874 13.4697 12.0057 13.5338 12.0062C13.6802 12.0062 14.1182 12.0062 15.305 9.9698C15.827 9.071 16.229 8.0102 16.2566 7.931C16.2985 7.84537 16.3592 7.7703 16.4342 7.7114C16.4957 7.67947 16.5641 7.66338 16.6334 7.6646H19.4834C19.7954 7.6646 20.0066 7.7114 20.0462 7.8302C20.1146 8.021 20.033 8.603 18.731 10.3622L18.1514 11.1302C16.9706 12.6758 16.9706 12.755 18.221 13.9286Z" fill="url(#paint0_linear_250:613)"/>
<defs>
<linearGradient id="paint0_linear_250:613" x1="1.2002" y1="1.2002" x2="27.2611" y2="11.3802" gradientUnits="userSpaceOnUse">
<stop stop-color="#C9C9C9"/>
<stop offset="0.471875" stop-color="#FEFEFE"/>
<stop offset="1" stop-color="#C9C9C9"/>
</linearGradient>
</defs>
</svg>
