<?xml version="1.0" encoding="iso-8859-1"?>
<svg version="1.1" id="Capa_1" xmlns="http://www.w3.org/2000/svg" xmlns:xlink="http://www.w3.org/1999/xlink" x="0px" y="0px"
	 viewBox="0 0 512 512" style="enable-background:new 0 0 512 512;" xml:space="preserve">
	<g>
		<path d="M437.02,74.98C388.667,26.629,324.38,0,256,0S123.333,26.629,74.98,74.98C26.629,123.333,0,187.62,0,256
			s26.629,132.667,74.98,181.02C123.333,485.371,187.62,512,256,512s132.667-26.629,181.02-74.98
			C485.371,388.667,512,324.38,512,256S485.371,123.333,437.02,74.98z M456.119,150.776c11.922,22.607,19.896,47.12,23.56,72.682
			l-42.537-26.314L456.119,150.776z M415.806,96.194c7.456,7.456,14.312,15.349,20.575,23.608L407.2,191.101l-46.842,15.22
			L271,141.398V92.145l58.858-49.842C361.851,53.331,391.173,71.561,415.806,96.194z M170.314,229.836L256,167.582l85.686,62.255
			l-32.729,100.73H203.043v-0.001L170.314,229.836z M256,30c12.929,0,25.69,1.087,38.185,3.201L256,65.536l-38.185-32.335
			C230.31,31.087,243.071,30,256,30z M96.194,96.194c24.632-24.632,53.955-42.863,85.948-53.891L241,92.145v49.253l-89.358,64.923
			l-46.842-15.22l-29.181-71.299C81.882,111.544,88.738,103.65,96.194,96.194z M55.88,150.776l18.978,46.368L32.32,223.458
			C35.984,197.896,43.958,173.383,55.88,150.776z M70.694,385.468c-25.667-36.572-39.832-79.851-40.644-125.329l65.479-40.506
			l44.638,14.504l34.973,107.638l-27.587,37.97L70.694,385.468z M96.194,415.806c-0.663-0.663-1.307-1.339-1.96-2.008l49.815-3.709
			l11.902,48.672C134.105,447.957,113.932,433.544,96.194,415.806z M321.853,472.306C300.778,478.692,278.643,482,256,482
			s-44.778-3.308-65.853-9.694l-18.323-74.927l26.745-36.812h114.862l26.745,36.812L321.853,472.306z M415.806,415.806
			c-17.738,17.738-37.911,32.151-59.757,42.955l11.902-48.672l49.815,3.709C417.113,414.467,416.469,415.144,415.806,415.806z
			 M364.447,379.745l-27.587-37.971l34.973-107.638l44.638-14.504l65.479,40.506c-0.811,45.479-14.976,88.757-40.644,125.329
			L364.447,379.745z"/>
	</g>

</svg>
