<?xml version="1.0" encoding="UTF-8" standalone="no"?>
<svg
   xmlns:dc="http://purl.org/dc/elements/1.1/"
   xmlns:cc="http://creativecommons.org/ns#"
   xmlns:rdf="http://www.w3.org/1999/02/22-rdf-syntax-ns#"
   xmlns:svg="http://www.w3.org/2000/svg"
   xmlns="http://www.w3.org/2000/svg"
   xmlns:sodipodi="http://sodipodi.sourceforge.net/DTD/sodipodi-0.dtd"
   xmlns:inkscape="http://www.inkscape.org/namespaces/inkscape"
   version="1.1"
   x="0px"
   y="0px"
   viewBox="0 0 512 512"
   style="enable-background:new 0 0 512 512;"
   xml:space="preserve">
  <path d="M437.019,74.982C388.667,26.629,324.38,0,256,0S123.333,26.629,74.981,74.981C26.629,123.334,0,187.62,0,256    s26.629,132.667,74.981,181.019C123.333,485.371,187.621,512,256,512c67.13,0,130.305-25.68,178.342-72.368    c0.232-0.206,0.447-0.428,0.664-0.648c0.67-0.655,1.349-1.3,2.013-1.964C485.371,388.667,512,324.38,512,256    S485.371,123.334,437.019,74.982z M415.759,96.241c15.222,15.222,27.99,32.24,38.135,50.566l-62.566-18.263l-7.751-59.068    C394.983,77.314,405.761,86.244,415.759,96.241z M96.242,96.242c21.996-21.997,47.736-38.884,75.774-50.099l-32.295,56.646    l-51.288,1.654C90.96,101.655,93.563,98.92,96.242,96.242z M43.296,332.517C34.601,308.297,30.067,282.498,30.067,256    c0-3.396,0.085-6.777,0.234-10.148l27.065,35.828L43.296,332.517z M256.002,481.933c-30.061,0-59.223-5.834-86.199-16.96    l77.824-28.155l62.81,38.543C292.837,479.695,274.592,481.933,256.002,481.933z M409.505,314.896    c-0.37,0.335-0.722,0.688-1.055,1.056c-0.17,0.187-0.321,0.386-0.48,0.58c-0.149,0.182-0.307,0.36-0.447,0.549    c-0.173,0.234-0.328,0.476-0.486,0.718c-0.109,0.166-0.226,0.328-0.329,0.498c-0.144,0.24-0.27,0.487-0.4,0.733    c-0.1,0.188-0.206,0.374-0.299,0.567c-0.107,0.225-0.196,0.456-0.292,0.685c-0.094,0.226-0.193,0.449-0.277,0.681    c-0.073,0.204-0.13,0.413-0.194,0.619c-0.082,0.263-0.168,0.523-0.236,0.792c-0.049,0.195-0.081,0.393-0.123,0.59    c-0.059,0.282-0.122,0.56-0.165,0.847c-0.035,0.232-0.05,0.465-0.073,0.698c-0.026,0.252-0.061,0.501-0.074,0.757    c-0.026,0.495-0.029,0.991-0.006,1.487L409,422.234c-18.432,16.998-39.219,30.619-61.611,40.526l-90.202-55.354    c-0.036-0.022-0.074-0.038-0.11-0.06c-0.234-0.141-0.477-0.265-0.718-0.392c-0.202-0.107-0.403-0.224-0.608-0.322    c-0.188-0.089-0.384-0.161-0.576-0.243c-0.265-0.112-0.527-0.232-0.796-0.328c-0.079-0.028-0.162-0.047-0.243-0.074    c-0.846-0.287-1.704-0.505-2.57-0.635c-1.386-0.21-2.813-0.221-4.242-0.028c-0.029,0.004-0.058,0.004-0.087,0.008    c-0.297,0.042-0.592,0.108-0.888,0.168c-0.191,0.039-0.385,0.068-0.575,0.114c-0.219,0.053-0.436,0.126-0.654,0.19    c-0.266,0.077-0.533,0.151-0.795,0.243c-0.038,0.013-0.077,0.021-0.115,0.035L133.72,446.056    c-13.378-8.645-25.943-18.763-37.474-30.294c-12.834-12.832-23.916-26.939-33.161-42.026l25.238-91.185    c0.022-0.079,0.033-0.159,0.053-0.24c0.069-0.268,0.126-0.537,0.18-0.808c0.046-0.229,0.093-0.456,0.129-0.685    c0.036-0.234,0.059-0.47,0.084-0.707c0.028-0.262,0.057-0.522,0.071-0.783c0.011-0.208,0.009-0.417,0.011-0.626    c0.003-0.281,0.008-0.56-0.004-0.839c-0.009-0.208-0.033-0.417-0.051-0.626c-0.024-0.271-0.044-0.54-0.082-0.808    c-0.033-0.236-0.083-0.47-0.127-0.705c-0.045-0.234-0.085-0.471-0.141-0.703c-0.063-0.262-0.143-0.519-0.22-0.778    c-0.06-0.202-0.116-0.406-0.184-0.605c-0.09-0.262-0.197-0.518-0.303-0.777c-0.08-0.195-0.155-0.391-0.244-0.582    c-0.108-0.236-0.232-0.466-0.353-0.698c-0.111-0.211-0.219-0.424-0.341-0.63c-0.115-0.197-0.243-0.39-0.368-0.582    c-0.151-0.235-0.306-0.466-0.47-0.693c-0.048-0.065-0.086-0.135-0.135-0.199l-49.695-65.785    c5.726-24.269,15.423-47.341,28.792-68.411l84.171-2.714c0.037-0.001,0.072-0.008,0.108-0.009    c0.466-0.019,0.931-0.053,1.393-0.115c0.051-0.007,0.1-0.018,0.151-0.025c0.382-0.055,0.76-0.127,1.136-0.211    c0.133-0.03,0.267-0.059,0.399-0.092c0.387-0.097,0.771-0.207,1.15-0.336c0.129-0.044,0.256-0.095,0.383-0.142    c0.285-0.105,0.565-0.219,0.844-0.34c0.13-0.057,0.261-0.112,0.389-0.173c0.368-0.174,0.731-0.362,1.084-0.566    c0.075-0.043,0.146-0.09,0.221-0.135c0.319-0.191,0.63-0.395,0.936-0.61c0.066-0.047,0.134-0.093,0.199-0.141    c0.715-0.522,1.386-1.112,2.008-1.766c0.051-0.053,0.101-0.106,0.151-0.16c0.583-0.631,1.119-1.319,1.598-2.064    c0.077-0.119,0.149-0.242,0.224-0.363c0.067-0.111,0.139-0.217,0.203-0.331l51.85-90.944c13.859-2.622,28.063-3.978,42.476-3.978    c33.285,0,65.466,7.163,94.801,20.735l11.959,91.13c0.003,0.029,0.008,0.058,0.011,0.087l0.022,0.164    c0.021,0.158,0.058,0.311,0.083,0.467c0.047,0.287,0.089,0.573,0.153,0.856c0.062,0.278,0.142,0.546,0.219,0.818    c0.049,0.173,0.088,0.35,0.144,0.521c0.442,1.374,1.073,2.653,1.859,3.811c0.052,0.077,0.112,0.149,0.165,0.226    c0.209,0.297,0.424,0.589,0.653,0.869c0.12,0.147,0.252,0.286,0.378,0.429c0.174,0.196,0.348,0.395,0.532,0.581    c0.165,0.168,0.34,0.328,0.514,0.489c0.161,0.149,0.322,0.299,0.489,0.44c0.192,0.163,0.392,0.319,0.593,0.473    c0.168,0.128,0.337,0.255,0.51,0.376c0.203,0.142,0.41,0.279,0.621,0.411c0.197,0.124,0.399,0.243,0.602,0.358    c0.194,0.109,0.389,0.219,0.589,0.32c0.26,0.132,0.525,0.252,0.793,0.369c0.157,0.068,0.311,0.14,0.471,0.204    c0.386,0.153,0.78,0.289,1.179,0.41c0.049,0.015,0.095,0.036,0.145,0.05l0.063,0.019c0.045,0.013,0.089,0.027,0.135,0.039    l96.163,28.07c7.25,21.237,11.329,43.643,11.983,66.637L409.505,314.896z M437.621,390.46l-2.692-58.025l44.065-39.887    C473.244,328.099,459.138,361.522,437.621,390.46z"/>
  <path style="fill:none;stroke:#000000;stroke-width:1px;stroke-linecap:butt;stroke-linejoin:miter;stroke-opacity:1"
     d="m 381.21445,50.247287 c 1.33913,0.334782 3.36371,0.605205 4.60219,1.534062 0.57853,0.433898 0.95553,1.100164 1.53406,1.534062 1.66054,1.245405 1.40758,0.288657 3.06812,1.534062 1.15706,0.867797 1.91106,2.200328 3.06813,3.068125 0.91473,0.686053 2.11674,0.899805 3.06812,1.534062 0.66187,0.441247 1.70198,1.701975 2.30109,2.301093 0.59912,0.599117 1.85985,1.639222 2.3011,2.301093 0.31713,0.475693 0.36277,1.129801 0.76703,1.534062 0.0491,0.04915 2.92525,1.438812 3.06812,1.534063 0.52432,0.349544 2.91851,2.843703 3.06813,3.068124 0.14182,0.212736 -0.11434,0.538346 0,0.767031 0.58738,1.174768 1.36686,0.599831 2.30109,1.534062 0.18079,0.180791 0,0.511354 0,0.767031 0.51135,0.255677 1.1298,0.36277 1.53406,0.767031 0.40426,0.404261 0.44991,1.05837 0.76703,1.534062 0.20057,0.300855 0.56647,0.466177 0.76703,0.767032 0.31713,0.475692 0.42401,1.076693 0.76704,1.534062 0.43389,0.578531 1.0227,1.022708 1.53406,1.534062 0.25568,0.255677 0.46617,0.566461 0.76703,0.767031 0.47569,0.317128 1.05837,0.449903 1.53406,0.767031 0.30086,0.20057 0.51136,0.511354 0.76703,0.767031 0.76703,0.767031 1.53406,1.534062 2.3011,2.301093 0.76703,0.767031 1.53406,1.534063 2.30109,2.301094 0.25568,0.255677 0.60533,0.443622 0.76703,0.767031 0.36158,0.723164 0.35105,1.607791 0.76703,2.301093 -0.65634,3.558566 1.64924,0.882211 2.30109,1.534062 0.40427,0.404261 0.36277,1.129801 0.76704,1.534062 0.18079,0.180791 0.58624,-0.180791 0.76703,0 0.40426,0.404261 0.36277,1.129802 0.76703,1.534063 0.2735,1.884221 1.62836,0.318543 2.30109,0.767031 0.60171,0.401139 0.88725,1.210653 1.53406,1.534062 0.45737,0.228684 1.0767,-0.228685 1.53407,0 0.64681,0.323408 0.95553,1.100164 1.53406,1.534062 0.45737,0.343027 1.05837,0.449903 1.53406,0.767031 0.30085,0.20057 0.46618,0.566462 0.76703,0.767031 0.47569,0.317128 1.05837,0.449903 1.53406,0.767034 1.6438,1.09586 -0.10973,1.20522 1.53407,2.30109 3.64553,2.43036 -0.64482,-2.945905 3.06812,0.76703 0.18079,0.18079 -0.18079,0.58624 0,0.76703 0.18079,0.18079 0.53835,-0.11434 0.76703,0 0.64682,0.32341 0.93235,1.13293 1.53406,1.53406 0.4757,0.31713 1.05837,0.44991 1.53406,0.76704 1.12867,0.75244 1.93946,2.31568 3.06813,3.06812 0.47569,0.31713 0.99169,0.58624 1.53406,0.76703 0.24256,0.0808 0.58624,-0.18079 0.76703,0 0.18079,0.18079 -0.18079,0.58624 0,0.76703 0.36158,0.36158 1.17248,-0.36158 1.53406,0 0.1808,0.18079 -0.18079,0.58624 0,0.76703 1.58702,1.58702 -0.062,-2.42517 1.53407,0.76703 0.11434,0.22869 -0.18079,0.58624 0,0.76704 0.18079,0.18079 0.53834,-0.11435 0.76703,0 0.32341,0.1617 0.51135,0.51135 0.76703,0.76703 0.25568,0.25567 0.60533,0.44362 0.76703,0.76703 0.11434,0.22868 -0.18079,0.58624 0,0.76703 0.18079,0.18079 0.58624,-0.18079 0.76703,0 0.18079,0.18079 -0.11434,0.53835 0,0.76703 0.16171,0.32341 0.60533,0.44362 0.76703,0.76703 0.4096,0.8192 -0.4096,0.71486 0,1.53406 2.54392,2.54393 -0.36158,-0.72316 0.76703,1.53407 0.16171,0.3234 0.65269,0.424 0.76703,0.76703 0.16171,0.48511 -0.1617,1.04895 0,1.53406 0.11435,0.34303 0.60533,0.44362 0.76704,0.76703 0.11434,0.22868 -0.11435,0.53835 0,0.76703 1.16955,2.33911 0.60807,-1.40286 1.53406,2.30109 0.12402,0.49609 0,1.02271 0,1.53407 0,0.25567 -0.11434,0.53834 0,0.76703 2.54392,2.54392 -0.36158,-0.72317 0.76703,1.53406 0.1617,0.32341 0.60533,0.44362 0.76703,0.76703 0.11434,0.22869 -0.0808,0.52448 0,0.76703 0.18079,0.54237 0.58624,0.99169 0.76703,1.53406 0.16171,0.48512 -0.22868,1.0767 0,1.53407 0.16171,0.3234 0.60533,0.44362 0.76703,0.76703 0.15206,0.30412 -0.15681,2.14428 0,2.30109 0.18079,0.18079 0.58624,-0.18079 0.76703,0 0.24867,0.24867 -0.24341,3.34832 0,3.83516 0.16171,0.3234 0.60533,0.44362 0.76703,0.76703 0.15206,0.30412 -0.1568,2.14428 0,2.30109 0.1808,0.18079 0.58624,-0.18079 0.76704,0 0.18079,0.18079 0,0.51135 0,0.76703 0,2.30109 0,4.60219 0,6.90328 0,1.53406 0,3.06813 0,4.60219 0,0.25567 0.18079,0.58624 0,0.76703 -0.1808,0.18079 -0.58624,-0.18079 -0.76704,0 -0.18079,0.18079 0,0.51135 0,0.76703 -0.51135,0 -1.07669,-0.22868 -1.53406,0 -0.22868,0.11434 0.18079,0.58624 0,0.76703 -0.40426,0.40426 -1.1298,0.36277 -1.53406,0.76703 -0.18079,0.18079 0.18079,0.58624 0,0.76703 -0.36158,0.36158 -1.07669,-0.22868 -1.53406,0 -0.32341,0.16171 -0.44362,0.60533 -0.76703,0.76703 -0.45737,0.22869 -1.04895,-0.1617 -1.53407,0 -0.54237,0.18079 -0.97942,0.62837 -1.53406,0.76704 -0.49608,0.12402 -1.02271,0 -1.53406,0 -2.04542,0 -4.09083,0 -6.13625,0 -0.76703,0 -1.53406,0 -2.30109,0 -0.76703,0 -1.54896,-0.15043 -2.3011,0 -0.5606,0.11212 -0.97942,0.62837 -1.53406,0.76703 -0.49608,0.12402 -1.02271,0 -1.53406,0 -1.27838,0 -2.55677,0 -3.83515,0 -0.72011,0 -3.39566,0.1465 -3.83516,0 -0.34303,-0.11435 -0.424,-0.65269 -0.76703,-0.76703 -5.08785,0 1.08474,0.36158 -2.30109,-0.76704 -0.48512,-0.1617 -1.02271,0 -1.53407,0 -0.79765,0 -3.99882,0.15084 -4.60218,0 -0.55464,-0.13866 -1.02271,-0.51135 -1.53407,-0.76703 -0.76703,-0.25567 -1.50827,-0.60846 -2.30109,-0.76703 -0.50142,-0.10028 -1.03264,0.10029 -1.53406,0 -2.3601,-0.47202 -4.54319,-1.82907 -6.90328,-2.30109 -1.25356,-0.25071 -2.5816,0.25071 -3.83516,0 -0.56061,-0.11212 -0.99169,-0.58624 -1.53406,-0.76703 -0.67042,-0.22348 -4.14019,0.23099 -4.60218,0 -0.64682,-0.32341 -0.84801,-1.30538 -1.53407,-1.53406 -0.97022,-0.32341 -2.07595,0.24804 -3.06812,0 -0.55464,-0.13866 -0.97942,-0.62838 -1.53406,-0.76704 -0.49609,-0.12402 -1.03798,0.12403 -1.53407,0 -0.55464,-0.13866 -0.97345,-0.65491 -1.53406,-0.76703 -0.75213,-0.15042 -1.53406,0 -2.30109,0 -0.25568,0 -0.53835,0.11435 -0.76703,0 -0.32341,-0.1617 -0.44362,-0.60532 -0.76703,-0.76703 -0.22869,-0.11434 -0.53835,0.11434 -0.76703,0 -0.32341,-0.1617 -0.44363,-0.60532 -0.76704,-0.76703 -0.22868,-0.11434 -0.53834,0.11434 -0.76703,0 -0.32341,-0.1617 -0.44362,-0.60533 -0.76703,-0.76703 -0.45737,-0.22868 -1.07669,0.22868 -1.53406,0 -0.32341,-0.1617 -0.44362,-0.60533 -0.76703,-0.76703 -0.45737,-0.22869 -1.07669,0.22868 -1.53406,0 -0.32341,-0.16171 -0.42401,-0.65269 -0.76703,-0.76703 -0.48512,-0.16171 -1.04895,0.1617 -1.53407,0 -0.34302,-0.11434 -0.424,-0.65269 -0.76703,-0.76703 -0.48511,-0.16171 -1.17248,0.36158 -1.53406,0 -0.36158,-0.36159 0.28365,-1.10859 0,-1.53407 -0.0476,-2.15975 -1.72938,-0.19532 -2.30109,-0.76703 -0.36158,-0.36158 0.36158,-1.17248 0,-1.53406 -1.02271,-1.02271 -0.73602,1.62712 -1.53406,-0.76703 -0.16171,-0.48511 0.36158,-1.17248 0,-1.53406 -2.19519,-2.19519 -0.96068,1.91381 -2.3011,-0.76703 -0.11434,-0.22869 0.11434,-0.53835 0,-0.76703 -2.54392,-2.54393 0.36158,0.72316 -0.76703,-1.53407 -0.1617,-0.32341 -0.60533,-0.44362 -0.76703,-0.76703 -0.11434,-0.22868 0.11434,-0.53834 0,-0.76703 -0.20535,-0.41069 -1.32871,-1.12337 -1.53406,-1.53406 -0.11434,-0.22869 0.11434,-0.53835 0,-0.76703 -2.54392,-2.54392 0.36158,0.72316 -0.76703,-1.53406 -0.16171,-0.32341 -0.60533,-0.44363 -0.76703,-0.76704 -0.11435,-0.22868 0.11434,-0.53834 0,-0.76703 -0.16171,-0.3234 -0.60533,-0.44362 -0.76704,-0.76703 -0.11434,-0.22868 0.11435,-0.53834 0,-0.76703 -1.7552,-3.5104 0.31792,3.25483 -1.53406,-2.30109 -0.0808,-0.24256 0.0808,-0.52448 0,-0.76703 -0.25568,-0.51136 -0.51135,-1.02271 -0.76703,-1.53406 0,-0.25568 0.0808,-0.52448 0,-0.76704 -0.18079,-0.54237 -0.58624,-0.99169 -0.76703,-1.53406 -0.23011,-0.69033 0.23011,-1.61076 0,-2.30109 -0.11434,-0.34303 -0.65269,-0.42401 -0.76703,-0.76703 -0.301,-0.90301 0.25444,-3.58444 0,-4.60219 -0.13866,-0.55464 -0.62837,-0.97942 -0.76703,-1.53406 -0.12402,-0.49609 0,-1.02271 0,-1.53406 0,-1.78974 0,-3.57948 0,-5.36922 0,-0.51135 0.12402,-1.03798 0,-1.53406 -0.13866,-0.55464 -0.58624,-0.99169 -0.76703,-1.53407 -0.0809,-0.24255 0,-0.51135 0,-0.76703 0,-0.51135 0,-1.0227 0,-1.53406 0,-1.02271 0,-2.04541 0,-3.06812 0,-3.068127 0,-6.136251 0,-9.204376 0,-0.627968 0.16565,-3.338183 0,-3.835155 -0.18079,-0.542373 -0.58624,-0.99169 -0.76703,-1.534062 -0.14811,-0.444322 0,-2.403428 0,-3.068125 0,-2.045416 0,-4.090832 0,-6.136248 0,-0.658366 -0.1496,-4.153414 0,-4.602187 0.11434,-0.343027 0.51135,-0.511354 0.76703,-0.767031 0.7797,-0.779703 1.22448,-1.062779 1.53406,-2.301093 0.12402,-0.496087 0,-1.022708 0,-1.534062 0.25568,-0.511355 0.58624,-0.99169 0.76703,-1.534063 0.0808,-0.242556 -0.11434,-0.538346 0,-0.767031 0.1617,-0.323408 0.65269,-0.424004 0.76703,-0.767031 0.16171,-0.485113 -0.1617,-1.048949 0,-1.534062 0.79805,-2.39415 0.51135,0.255677 1.53406,-0.767031 0.36159,-0.361582 -0.36158,-1.17248 0,-1.534062 0.18079,-0.180791 0.58624,0.180791 0.76703,0 0.1808,-0.180791 -0.11434,-0.538347 0,-0.767031 2.54393,-2.543922 -0.36158,0.723164 0.76704,-1.534062 0.77565,-1.551306 1.78002,-0.245967 2.30109,-0.767032 0.18079,-0.180791 -0.18079,-0.58624 0,-0.767031 0.38351,-0.383515 1.91758,0.383516 2.30109,0 0,-2.045416 -0.25568,0.255677 0.76703,-0.767031 0.36158,-0.361582 -0.36158,-1.17248 0,-1.534062 0.18079,-0.180791 0.58624,0.180791 0.76703,0 0.18079,-0.180791 -0.11434,-0.538347 0,-0.767031 0.16171,-0.323409 0.60533,-0.443622 0.76704,-0.767031 1.27363,-2.547271 -5.92456,2.195247 3.06812,-2.301093 z" />
  <path style="stroke-width:0.76703107" d="m 422.26711,137.1947 c -16.43105,-4.80189 -30.0918,-8.99013 -30.35722,-9.3072 -0.66327,-0.79234 -7.80872,-56.283605 -7.3115,-56.78082 0.61365,-0.613645 13.98135,9.858585 23.21663,18.187864 12.63284,11.393526 24.23394,24.711826 34.11699,39.167006 6.13533,8.97367 10.92852,16.80345 10.5177,17.18091 -0.16938,0.15562 -13.75155,-3.64587 -30.1826,-8.44776 z" />
  <path style="stroke-width:0.76703107" d="m 98.54042,94.879573 c 17.31714,-17.109379 35.01628,-29.687807 57.7107,-41.013849 7.69447,-3.840054 14.12691,-6.834325 14.29432,-6.653936 0.16741,0.180389 -6.70847,12.581302 -15.27973,27.557584 l -15.58411,27.229608 -6.38052,0.47868 c -3.50928,0.26327 -14.83703,0.70754 -25.17277,0.98727 l -18.792263,0.50859 z"/>
  <path style="stroke-width:0.76703107" d="M 41.412699,325.85442 C 33.893623,301.56061 30.265369,277.92096 30.802867,256.72677 l 0.238818,-9.41685 12.940192,17.28853 12.940192,17.28853 -6.71118,24.34363 c -3.691149,13.389 -6.815044,24.46328 -6.941987,24.60951 -0.126944,0.14624 -0.962235,-2.09733 -1.856203,-4.9857 z" />
  <path style="stroke-width:0.76703107" d="m 229.70274,480.03335 c -17.43201,-2.07694 -37.80893,-6.96886 -52.47267,-12.59722 l -6.45079,-2.476 5.30025,-1.89134 c 2.91514,-1.04024 20.08855,-7.2401 38.16315,-13.77747 24.1677,-8.74117 33.24689,-11.71144 34.31418,-11.22591 4.12915,1.87843 60.30382,36.78392 59.88004,37.20791 -0.77026,0.77064 -21.81674,4.36399 -30.68423,5.23885 -11.06677,1.09183 -37.0395,0.83301 -48.04993,-0.47882 z"/>
  <path style="stroke-width:0.76703107" d="m 437.66473,382.15708 c -0.81495,-11.01028 -2.17924,-45.34758 -1.89929,-47.80284 0.22596,-1.98174 3.58317,-5.36482 21.12236,-21.28511 11.46954,-10.41088 21.00328,-18.92887 21.18608,-18.92887 0.45396,0 -0.63601,5.63665 -3.03973,15.71977 -4.38742,18.4043 -13.2599,40.76882 -22.62478,57.02936 -4.51625,7.84172 -13.43471,21.5957 -14.00324,21.5957 -0.15016,0 -0.48378,-2.84761 -0.7414,-6.32801 z"/>
  <path style="stroke-width:0.76703107" d="m 210.14344,305.48191 c -21.72615,-17.6906 -39.61973,-32.49214 -39.7635,-32.89231 -0.14377,-0.40018 7.44081,-21.42971 16.85464,-46.73228 l 17.11604,-46.00469 48.72652,0.0118 48.72652,0.0118 16.2613,45.05127 c 8.94372,24.77819 16.36475,45.43782 16.49117,45.91028 0.12642,0.47246 -17.71866,14.75935 -39.65575,31.74864 -21.93709,16.98929 -41.09369,31.828 -42.57023,32.9749 l -2.68461,2.08528 z"/>
</svg>
