<svg width="187" height="63" viewBox="0 0 187 63" fill="none" xmlns="http://www.w3.org/2000/svg">
<path d="M58.4491 23.2873C52.2718 17.5785 46.3754 12.7859 39.8472 8.76865C39.7068 8.69817 39.5664 8.83912 39.5664 9.12104C39.5664 9.12104 39.5664 9.96678 39.6366 10.883C39.7068 11.5878 39.9876 12.2926 40.5491 12.7155C43.4272 14.8298 50.0256 20.9615 52.693 25.0492C52.8334 25.1902 52.8334 25.3311 52.8334 25.4721C52.4824 31.5333 48.6918 42.8804 44.9013 48.0253C44.8311 48.1663 44.4801 48.3777 44.3397 48.2367C32.0554 39.7088 31.9852 22.0186 31.0025 1.36838C30.9323 0.240717 27.7033 -0.534549 27.7033 0.452153C27.2821 21.9482 26.2292 40.2726 14.9276 48.0958C14.7872 48.2367 14.6468 48.0253 14.5065 47.8843C11.1371 43.1623 6.85511 31.5333 6.08295 25.4721C6.08295 25.3311 6.08295 25.2607 6.15315 25.1197C8.53981 21.6663 15.6296 15.1117 18.4374 12.9974C18.999 12.5745 19.35 11.9402 19.35 11.1649C19.35 10.5306 19.35 9.12104 19.35 9.12104C19.35 8.9096 19.2096 8.83912 19.0692 8.9096C11.5582 13.4907 6.36373 17.508 0.116304 23.3577C-0.0240881 23.4987 -0.024087 23.5692 0.0461088 23.7101C1.73081 35.4096 6.78491 47.1796 11.3476 56.4123C11.4178 56.6237 11.6986 56.7647 11.6986 56.7647H47.8495C47.8495 56.7647 48.0601 56.6942 48.1303 56.5532C52.9036 46.8976 56.4836 36.1144 58.5193 23.7101C58.6596 23.4987 58.5895 23.4282 58.4491 23.2873Z" fill="url(#paint0_linear_250:749)"/>
<path d="M83.7815 15.3133C84.6151 15.3133 85.5769 15.2493 86.5388 15.3133C88.719 15.4412 90.0014 16.593 90.0655 18.8325C90.1938 21.1359 90.1938 23.5034 90.0655 25.8069C89.9373 27.8544 88.6548 29.0062 86.6029 29.1981C85.7693 29.2621 84.8716 29.2621 83.9738 29.2621C83.5891 29.2621 83.4608 29.3901 83.4608 29.774C83.4608 30.6698 83.4608 31.5656 83.4608 32.5254C83.4608 33.0372 83.3326 33.2292 82.7555 33.2292C80.6394 33.1652 81.0242 33.4851 80.96 31.5016C80.96 30.7977 80.96 30.0939 80.96 29.2621C80.3829 29.2621 79.9341 29.2621 79.4211 29.2621C78.7157 29.2621 78.0104 29.2621 77.305 29.1341C75.5737 28.8782 74.4836 27.7904 74.4195 26.1268C74.2912 23.5674 74.2912 20.944 74.4836 18.3846C74.6118 16.529 75.8943 15.5052 77.7539 15.3772C78.7798 15.3133 79.8699 15.3772 80.8959 15.3772C80.96 14.7374 80.8959 14.0336 81.1524 13.7776C81.473 13.5217 82.1784 13.5857 82.6914 13.6496C84.1021 13.5857 83.2685 14.6734 83.7815 15.3133ZM81.0883 17.5527C80.1906 17.5527 79.357 17.4888 78.5233 17.5527C77.5615 17.6167 76.9844 18.0646 76.9844 19.0244C76.9203 21.1999 76.9203 23.4394 76.9844 25.6149C76.9844 26.2548 77.3691 26.8946 78.0745 26.9586C79.1005 27.0866 80.0623 27.0866 81.0883 27.1506C81.0883 23.8873 81.0883 20.752 81.0883 17.5527ZM83.7173 17.4888C83.6532 17.6167 83.5891 17.6807 83.5891 17.7447C83.5891 20.752 83.5891 23.7593 83.5891 26.7667C83.5891 26.8946 83.8456 27.1506 84.038 27.1506C84.6792 27.2146 85.3845 27.1506 86.0258 27.1506C87.0518 27.0866 87.6289 26.7027 87.6289 25.6789C87.693 23.5034 87.6289 21.2639 87.6289 19.0884C87.6289 18.9604 87.5647 18.8325 87.5647 18.7045C87.3724 18.1926 87.0518 17.7447 86.4746 17.6807C85.5128 17.4888 84.5509 17.4888 83.7173 17.4888Z" fill="url(#paint1_linear_250:749)"/>
<path d="M115.458 17.8087C116.549 17.8087 117.639 17.7447 118.665 17.8087C120.973 17.9367 122.191 19.1524 122.32 21.4559C122.32 21.5199 122.32 21.5839 122.32 21.6478C122.32 24.2073 122.384 26.7667 122.32 29.3261C122.256 31.7575 121.23 32.9093 118.793 33.1652C117.831 33.2932 116.805 33.2292 115.907 33.0373C114.048 32.7173 113.086 31.3736 113.086 29.1341C113.086 25.551 113.086 21.9678 113.086 18.3846C113.086 17.6168 113.15 16.8489 113.214 16.1451C113.407 14.6734 114.176 13.7776 115.651 13.5217C117.51 13.2018 119.434 13.0098 121.358 12.8178C121.486 12.8178 121.678 12.8818 121.743 12.8818C121.807 13.4577 121.871 14.0975 121.807 14.6734C121.807 14.8014 121.358 14.9294 121.037 14.9933C119.755 15.1853 118.472 15.2493 117.126 15.4412C115.587 15.5692 115.138 16.1451 115.458 17.8087ZM115.458 20.0482C115.458 20.5601 115.458 21.008 115.458 21.3919C115.458 23.9513 115.458 26.5107 115.458 29.0702C115.458 30.6058 115.907 31.1177 117.51 31.1177C117.767 31.1177 118.088 31.1177 118.344 31.1177C119.306 31.0537 119.883 30.5418 119.883 29.646C119.947 26.9586 119.947 24.2712 119.883 21.5199C119.883 20.6881 119.37 20.1122 118.601 20.1122C117.639 19.9842 116.613 20.0482 115.458 20.0482Z" fill="url(#paint2_linear_250:749)"/>
<path d="M97.5672 31.0537C97.8878 29.0062 98.1443 26.9586 98.4649 24.9111C98.7855 22.7356 99.1062 20.6241 99.4268 18.4486C99.4909 18.0007 99.6833 17.8087 100.132 17.8727C100.453 17.8727 100.837 17.8727 101.158 17.8727C101.735 17.8087 101.863 18.0647 101.799 18.5765C100.902 24.2712 100.068 29.9659 99.1703 35.5967C98.8497 37.6442 98.0161 38.2841 95.9641 38.348C95.5153 38.348 95.2588 38.2201 95.2588 37.7082C95.2588 37.5802 95.2588 37.5162 95.1946 37.3883C95.0023 36.3005 95.0023 36.2365 96.0924 36.1725C96.5412 36.1086 96.7977 35.9166 96.8619 35.4687C96.9901 34.8928 97.0542 34.381 97.1825 33.8051C97.3107 33.3572 97.1183 33.2932 96.7336 33.2292C95.1305 33.0373 94.5534 32.5894 94.2969 31.0537C93.7198 27.8544 93.2709 24.6552 92.758 21.4559C92.5656 20.4321 92.4373 19.4723 92.245 18.4486C92.1809 18.0007 92.3091 17.8087 92.758 17.8087C94.9382 17.8087 94.4252 17.5528 94.8099 19.4723C95.4511 23.0555 95.9641 26.7027 96.4771 30.2859C96.5412 30.9257 96.7977 31.1817 97.5672 31.0537Z" fill="url(#paint3_linear_250:749)"/>
<path d="M134.76 25.5509C134.76 26.8307 134.824 28.1743 134.76 29.4541C134.631 31.8855 133.605 32.9733 131.169 33.2292C130.207 33.2932 129.181 33.2292 128.219 33.0372C126.68 32.7173 125.718 31.6935 125.654 30.0939C125.59 27.0226 125.526 24.0153 125.654 20.944C125.718 19.2804 126.872 18.1286 128.54 17.9367C129.502 17.8087 130.527 17.8087 131.553 17.8727C133.541 18.0646 134.631 19.2804 134.76 21.2639C134.76 22.6716 134.696 24.1433 134.76 25.5509C134.696 25.5509 134.696 25.5509 134.76 25.5509ZM127.898 25.5509C127.898 26.8307 127.898 28.1104 127.898 29.3901C127.898 30.4778 128.476 31.0537 129.566 31.1177C129.758 31.1177 130.015 31.1177 130.207 31.1177C131.746 31.1177 132.259 30.6058 132.259 29.0701C132.259 26.8946 132.259 24.7191 132.259 22.5436C132.259 20.3681 131.874 19.9842 129.63 20.0482C128.347 20.1122 127.834 20.6241 127.834 21.9038C127.898 23.0555 127.898 24.2712 127.898 25.5509Z" fill="url(#paint4_linear_250:749)"/>
<path d="M144.698 19.9842C143.608 19.9842 142.582 19.9842 141.556 19.9842C141.428 19.9842 141.235 20.3041 141.171 20.4961C141.043 22.6716 140.979 24.9111 140.915 27.0866C140.85 28.3663 140.786 29.582 140.658 30.7977C140.402 32.8453 138.799 33.3571 136.939 33.1012C136.169 33.0372 136.682 32.1414 136.554 31.6295C136.49 31.3096 136.49 30.9897 136.939 30.9897C137.067 30.9897 137.131 30.9897 137.26 30.9897C138.093 30.9257 138.35 30.7337 138.414 29.9019C138.542 27.4065 138.67 24.8471 138.799 22.3516C138.863 21.0079 138.927 19.7282 138.991 18.3845C138.991 17.8727 139.247 17.7447 139.696 17.7447C141.941 17.7447 144.121 17.7447 146.365 17.7447C146.878 17.7447 147.07 17.8727 147.07 18.4485C147.07 23.1195 147.07 27.8544 147.07 32.5253C147.07 33.0372 146.878 33.2292 146.365 33.2292C144.313 33.1652 144.698 33.4851 144.698 31.5656C144.698 27.9824 144.698 24.3352 144.698 20.752C144.698 20.56 144.698 20.3041 144.698 19.9842Z" fill="url(#paint5_linear_250:749)"/>
<path d="M105.583 19.9842C104.685 19.9842 103.852 19.9842 103.082 19.9842C102.569 19.9842 102.313 19.8562 102.377 19.2803C102.441 17.5527 102.185 17.8087 103.852 17.8087C106.032 17.8087 108.212 17.8087 110.456 17.8087C111.034 17.8087 111.29 17.9366 111.29 18.5765C111.226 20.0482 111.482 19.9842 109.879 19.9842C109.302 19.9842 108.469 19.8562 108.148 20.1761C107.827 20.4321 108.02 21.2639 108.02 21.8397C108.02 25.359 108.02 28.9421 108.02 32.4613C108.02 33.1012 107.827 33.2932 107.186 33.2932C105.327 33.2292 105.583 33.4851 105.583 31.6935C105.583 28.1103 105.583 24.4632 105.583 20.88C105.583 20.624 105.583 20.3681 105.583 19.9842Z" fill="url(#paint6_linear_250:749)"/>
<path d="M82.5446 39.7557C80.6209 39.7557 78.6972 39.7557 76.7735 39.7557C76.7735 40.0757 76.7735 40.3316 76.7735 40.6515C76.7735 45.8344 76.7735 51.0172 76.7735 56.136C76.7735 57.1598 76.7735 57.1598 75.8117 57.1598C74.1445 57.1598 74.3368 57.4158 74.3368 55.6881C74.3368 49.9294 74.3368 44.1708 74.3368 38.4121C74.3368 37.4523 74.3368 37.4523 75.2987 37.4523C78.2484 37.4523 81.2622 37.4523 84.2118 37.4523C85.1096 37.4523 85.1096 37.4523 85.1096 38.3481C85.1096 44.2987 85.1096 50.3134 85.1096 56.264C85.1096 57.0958 85.1096 57.1598 84.2118 57.0958C82.3523 57.0958 82.6087 57.2878 82.6087 55.5602C82.6087 50.5693 82.6087 45.5784 82.6087 40.5876C82.5446 40.3956 82.5446 40.1397 82.5446 39.7557Z" fill="url(#paint7_linear_250:749)"/>
<path d="M136.729 41.7393C137.242 41.7393 137.755 41.7393 138.268 41.7393C138.845 41.7393 139.486 41.7393 140.063 41.8033C142.243 41.9952 143.462 43.147 143.526 45.3225C143.59 48.0738 143.59 50.7612 143.526 53.5126C143.462 55.8161 142.436 56.9038 140.127 57.1598C139.037 57.2878 137.947 57.1598 136.921 57.0318C135.446 56.7759 134.677 55.6881 134.42 54.2804C134.356 53.7686 134.292 53.2567 134.292 52.7448C134.292 49.1616 134.292 45.5144 134.292 41.9312C134.292 41.4194 134.356 40.8435 134.42 40.3316C134.613 38.604 135.446 37.7082 137.178 37.4523C138.652 37.1963 140.127 37.0683 141.666 36.9404C143.141 36.8124 143.141 36.8124 143.077 38.3481C143.077 38.8599 142.82 38.9879 142.372 39.0519C141.025 39.1799 139.678 39.3078 138.268 39.4998C136.857 39.5638 136.408 40.2036 136.729 41.7393ZM136.857 43.9788C136.857 44.0428 136.793 44.1067 136.793 44.1707C136.793 47.306 136.793 50.3773 136.793 53.5126C136.793 54.3444 137.306 54.8563 138.139 54.9843C139.871 55.2402 140.768 54.9203 141.089 53.9605C141.153 53.8325 141.153 53.6406 141.153 53.5126C141.153 50.8252 141.153 48.1378 141.153 45.3865C141.153 44.6186 140.64 43.9788 139.935 43.9788C138.909 43.9148 137.883 43.9788 136.857 43.9788Z" fill="url(#paint8_linear_250:749)"/>
<path d="M159.815 57.1598C159.815 58.6315 159.815 59.9752 159.815 61.3189C159.815 62.1507 159.75 62.2147 158.917 62.2147C157.121 62.2147 157.378 62.4067 157.378 60.679C157.378 54.6644 157.378 48.7138 157.378 42.6991C157.378 41.6754 157.955 41.2914 158.853 41.8673C159.494 42.2512 160.007 42.1233 160.712 41.9313C162.123 41.4834 163.598 41.6114 164.944 42.3152C166.035 42.8911 166.483 43.9788 166.483 45.1306C166.548 48.0099 166.548 50.8893 166.483 53.7686C166.419 55.9441 165.009 57.0959 162.572 57.1598C161.738 57.2238 160.841 57.1598 159.815 57.1598ZM159.879 43.9788C159.879 44.2348 159.815 44.4267 159.815 44.6187C159.815 47.818 159.815 51.0172 159.815 54.2165C159.815 54.8564 160.007 55.0483 160.648 54.9843C161.097 54.9203 161.61 54.9843 162.059 54.9843C163.662 54.9843 164.175 54.4724 164.175 52.8728C164.175 50.5693 164.175 48.2659 164.175 45.8984C164.175 45.5785 164.111 45.1946 164.047 44.8746C163.918 44.3627 163.534 43.9788 163.021 43.9148C161.995 43.9148 160.905 43.9788 159.879 43.9788Z" fill="url(#paint9_linear_250:749)"/>
<path d="M124.483 57.1598C124.483 58.5035 124.483 59.7192 124.483 60.9989C124.483 62.2146 124.483 62.2146 123.265 62.2146C123.072 62.2146 122.944 62.2146 122.752 62.2146C122.303 62.2146 122.11 62.0867 122.11 61.5748C122.11 55.1762 122.11 48.7137 122.11 42.3152C122.11 41.9313 122.239 41.6753 122.687 41.7393C123.136 41.8033 123.521 41.9952 123.97 42.0592C124.355 42.1232 124.739 42.1872 125.06 42.0592C127.689 40.6515 131.152 42.3152 131.28 45.2585C131.408 48.0739 131.408 50.8252 131.28 53.6406C131.216 55.9441 129.805 57.0958 127.304 57.2238C126.342 57.2238 125.445 57.1598 124.483 57.1598ZM124.547 43.9788C124.547 47.6899 124.547 51.3371 124.547 55.0483C125.317 55.0483 126.022 55.0483 126.663 55.0483C128.33 55.0483 128.779 54.6004 128.779 52.9368C128.779 50.6333 128.779 48.3298 128.779 46.0903C128.779 45.7704 128.779 45.5144 128.715 45.1945C128.587 44.5547 128.202 44.1068 127.561 44.0428C126.535 43.9148 125.573 43.9788 124.547 43.9788Z" fill="url(#paint10_linear_250:749)"/>
<path d="M150.707 57.3517C150.578 57.2878 150.514 57.2238 150.514 57.2238C148.334 57.0958 147.885 56.392 147.565 54.2165C146.923 50.3133 146.282 46.3462 145.641 42.4431C145.577 41.8673 145.705 41.6753 146.282 41.7393C148.334 41.8033 147.885 41.4833 148.206 43.4669C148.783 47.1141 149.36 50.6973 149.937 54.3444C150.001 54.6004 150.13 54.8563 150.258 54.9843C150.707 55.2402 150.963 55.0483 151.027 54.4084C151.348 52.2329 151.669 49.9934 151.925 47.8179C152.182 45.9623 152.438 44.1707 152.695 42.3152C152.695 42.2512 152.695 42.2512 152.695 42.1872C153.208 41.3554 154.041 41.8673 154.682 41.8033C155.195 41.7393 155.067 42.2512 155.003 42.5071C154.362 46.6662 153.721 50.8892 153.079 55.0483C152.823 56.7119 152.566 58.3755 152.246 60.0391C151.925 61.5748 150.514 62.4706 148.975 62.2146C148.783 62.2146 148.591 62.0227 148.527 61.8307C148.462 61.7028 148.462 61.4468 148.462 61.2549C148.334 60.1671 148.334 60.1671 149.36 60.0391C149.617 59.9752 150.001 59.7832 150.065 59.5912C150.45 58.8234 150.578 58.0556 150.707 57.3517Z" fill="url(#paint11_linear_250:749)"/>
<path d="M112.297 51.913C112.297 52.4889 112.297 52.9368 112.297 53.4487C112.361 54.4084 112.874 54.9843 113.9 55.0483C115.118 55.1123 116.337 55.0483 117.555 55.0483C118.068 55.0483 118.26 55.2402 118.26 55.7521C118.26 57.5437 118.325 57.2238 116.85 57.2238C115.567 57.2238 114.285 57.2238 113.002 57.0958C111.207 56.9039 110.053 55.7521 109.989 53.9605C109.924 50.9532 109.924 47.9459 109.989 44.9386C110.053 43.211 111.207 42.0592 112.938 41.8673C113.9 41.7393 114.862 41.8033 115.76 41.8673C117.234 42.0592 118.196 43.019 118.517 44.4907C118.645 45.0026 118.645 45.5784 118.645 46.0903C118.645 47.7539 118.645 49.4815 118.645 51.1452C118.645 51.721 118.453 51.913 117.876 51.849C116.273 51.849 114.605 51.849 113.002 51.849C112.81 51.913 112.618 51.913 112.297 51.913ZM112.297 49.6735C113.644 49.6735 114.926 49.6735 116.273 49.6735C116.273 48.4578 116.273 47.2421 116.273 46.0903C116.273 44.4267 115.76 43.9148 114.092 43.9788C113.964 43.9788 113.836 43.9788 113.708 43.9788C112.874 44.0428 112.361 44.4267 112.297 45.2585C112.233 46.6662 112.297 48.2018 112.297 49.6735Z" fill="url(#paint12_linear_250:749)"/>
<path d="M91.0724 51.913C91.0082 52.041 91.0082 52.041 91.0082 52.105C90.9441 54.2165 91.0082 55.1763 93.6373 55.0483C94.535 54.9843 95.4327 55.0483 96.3305 55.0483C96.7793 55.0483 96.9717 55.2403 96.9717 55.6882C96.9076 57.4158 97.2282 57.2238 95.4969 57.2238C94.3426 57.2238 93.1884 57.2878 92.0342 57.1598C89.854 56.9039 88.7639 55.9441 88.6998 53.8326C88.5715 50.8253 88.6357 47.8179 88.7639 44.8106C88.828 43.147 89.9823 42.1232 91.5853 41.9313C92.4831 41.8033 93.4449 41.8033 94.3426 41.9313C96.0098 42.1232 97.0999 43.211 97.2923 44.8746C97.4206 46.2183 97.4206 47.626 97.4206 49.0337C97.4206 49.7375 97.3564 50.4413 97.4206 51.1452C97.4847 51.785 97.2282 51.977 96.587 51.977C94.9197 51.913 93.1884 51.977 91.5212 51.977C91.393 51.913 91.2006 51.913 91.0724 51.913ZM91.0724 49.6735C92.3548 49.6735 93.6373 49.6735 94.9839 49.6735C94.9839 48.2018 95.048 46.7302 94.9839 45.3225C94.9839 44.5547 94.4068 44.0428 93.6373 43.9788C92.2266 43.7869 91.393 44.1068 91.1365 44.9386C91.1365 45.0026 91.0724 45.0026 91.0724 45.0666C91.0724 46.5382 91.0724 48.1379 91.0724 49.6735Z" fill="url(#paint13_linear_250:749)"/>
<path d="M186.936 50.9532C186.936 52.6808 186.936 54.4724 186.936 56.2C186.936 57.1598 186.487 57.5437 185.589 57.0319C184.819 56.584 184.306 56.6479 183.473 57.0319C181.613 57.9276 178.792 56.52 178.343 54.4724C178.022 53.0008 178.022 51.5291 178.343 50.0574C178.664 48.3938 179.818 47.434 181.613 47.3061C182.383 47.2421 183.216 47.2421 184.05 47.3061C184.435 47.3061 184.563 47.1781 184.563 46.7942C184.563 46.3463 184.563 45.8344 184.563 45.3865C184.499 44.4907 183.986 43.9788 183.088 43.9788C181.934 43.9148 180.78 43.9148 179.625 43.9788C179.048 43.9788 178.856 43.7869 178.856 43.211C178.92 41.6753 178.664 41.8033 180.267 41.8033C181.293 41.8033 182.255 41.8033 183.28 41.8033C185.717 41.9313 186.936 43.147 187 45.5784C186.936 47.37 186.871 49.1616 186.936 50.9532C186.871 50.9532 186.871 50.9532 186.936 50.9532ZM184.499 54.9843C184.499 53.1927 184.499 51.5291 184.499 49.8015C184.499 49.6735 184.242 49.4816 184.178 49.4816C183.409 49.4816 182.639 49.4816 181.934 49.5455C181.164 49.6095 180.716 50.1214 180.716 50.8892C180.651 51.785 180.651 52.6808 180.716 53.6406C180.78 54.4085 181.229 54.9843 181.998 54.9843C182.768 55.0483 183.601 54.9843 184.499 54.9843Z" fill="url(#paint14_linear_250:749)"/>
<path d="M104.798 43.9148C104.798 44.2347 104.798 44.4907 104.798 44.7466C104.798 48.5857 104.798 52.4249 104.798 56.328C104.798 57.1598 104.798 57.2238 103.9 57.1598C102.168 57.1598 102.361 57.3517 102.361 55.5601C102.361 51.977 102.361 48.3298 102.361 44.7466C102.361 44.4907 102.361 44.2347 102.361 43.9148C101.463 43.9148 100.694 43.9148 99.86 43.9148C99.347 43.9148 99.1547 43.7228 99.1547 43.211C99.1547 41.4834 99.0906 41.7393 100.63 41.7393C102.874 41.7393 105.054 41.7393 107.298 41.7393C107.94 41.7393 108.132 41.9313 108.132 42.5711C108.068 44.0428 108.26 43.9148 106.721 43.9148C106.144 43.9148 105.503 43.9148 104.798 43.9148Z" fill="url(#paint15_linear_250:749)"/>
<path d="M172.253 43.9148C172.253 44.2987 172.253 44.5547 172.253 44.8106C172.253 48.6498 172.253 52.4889 172.253 56.392C172.253 57.0318 172.061 57.2878 171.42 57.2238C169.624 57.1598 169.881 57.4158 169.881 55.6882C169.881 51.3371 169.881 47.0501 169.881 42.6991C169.881 41.8033 169.881 41.8033 170.779 41.8033C172.574 41.8033 174.434 41.8033 176.229 41.8033C176.806 41.8033 176.999 41.9953 176.934 42.5711C176.87 44.1068 177.191 43.9788 175.524 43.9788C174.498 43.9148 173.408 43.9148 172.253 43.9148Z" fill="url(#paint16_linear_250:749)"/>
<defs>
<linearGradient id="paint0_linear_250:749" x1="29.2979" y1="0" x2="29.2979" y2="56.7647" gradientUnits="userSpaceOnUse">
<stop stop-color="#DFDFDF"/>
<stop offset="0.497917" stop-color="#E3E9ED"/>
<stop offset="1" stop-color="#858585"/>
</linearGradient>
<linearGradient id="paint1_linear_250:749" x1="82.2459" y1="13.5924" x2="82.2459" y2="33.2292" gradientUnits="userSpaceOnUse">
<stop stop-color="#DFDFDF"/>
<stop offset="0.497917" stop-color="#E3E9ED"/>
<stop offset="1" stop-color="#858585"/>
</linearGradient>
<linearGradient id="paint2_linear_250:749" x1="117.717" y1="12.8178" x2="117.717" y2="33.2318" gradientUnits="userSpaceOnUse">
<stop stop-color="#DFDFDF"/>
<stop offset="0.497917" stop-color="#E3E9ED"/>
<stop offset="1" stop-color="#858585"/>
</linearGradient>
<linearGradient id="paint3_linear_250:749" x1="97.0219" y1="17.7974" x2="97.0219" y2="38.348" gradientUnits="userSpaceOnUse">
<stop stop-color="#DFDFDF"/>
<stop offset="0.497917" stop-color="#E3E9ED"/>
<stop offset="1" stop-color="#858585"/>
</linearGradient>
<linearGradient id="paint4_linear_250:749" x1="130.184" y1="17.8307" x2="130.184" y2="33.2532" gradientUnits="userSpaceOnUse">
<stop stop-color="#DFDFDF"/>
<stop offset="0.497917" stop-color="#E3E9ED"/>
<stop offset="1" stop-color="#858585"/>
</linearGradient>
<linearGradient id="paint5_linear_250:749" x1="141.787" y1="17.7447" x2="141.787" y2="33.2292" gradientUnits="userSpaceOnUse">
<stop stop-color="#DFDFDF"/>
<stop offset="0.497917" stop-color="#E3E9ED"/>
<stop offset="1" stop-color="#858585"/>
</linearGradient>
<linearGradient id="paint6_linear_250:749" x1="106.829" y1="17.7953" x2="106.829" y2="33.2932" gradientUnits="userSpaceOnUse">
<stop stop-color="#DFDFDF"/>
<stop offset="0.497917" stop-color="#E3E9ED"/>
<stop offset="1" stop-color="#858585"/>
</linearGradient>
<linearGradient id="paint7_linear_250:749" x1="79.7198" y1="37.4523" x2="79.7198" y2="57.1732" gradientUnits="userSpaceOnUse">
<stop stop-color="#DFDFDF"/>
<stop offset="0.497917" stop-color="#E3E9ED"/>
<stop offset="1" stop-color="#858585"/>
</linearGradient>
<linearGradient id="paint8_linear_250:749" x1="138.933" y1="36.8895" x2="138.933" y2="57.2128" gradientUnits="userSpaceOnUse">
<stop stop-color="#DFDFDF"/>
<stop offset="0.497917" stop-color="#E3E9ED"/>
<stop offset="1" stop-color="#858585"/>
</linearGradient>
<linearGradient id="paint9_linear_250:749" x1="161.948" y1="41.5988" x2="161.948" y2="62.221" gradientUnits="userSpaceOnUse">
<stop stop-color="#DFDFDF"/>
<stop offset="0.497917" stop-color="#E3E9ED"/>
<stop offset="1" stop-color="#858585"/>
</linearGradient>
<linearGradient id="paint10_linear_250:749" x1="126.743" y1="41.5513" x2="126.743" y2="62.2146" gradientUnits="userSpaceOnUse">
<stop stop-color="#DFDFDF"/>
<stop offset="0.497917" stop-color="#E3E9ED"/>
<stop offset="1" stop-color="#858585"/>
</linearGradient>
<linearGradient id="paint11_linear_250:749" x1="150.346" y1="41.7054" x2="150.346" y2="62.258" gradientUnits="userSpaceOnUse">
<stop stop-color="#DFDFDF"/>
<stop offset="0.497917" stop-color="#E3E9ED"/>
<stop offset="1" stop-color="#858585"/>
</linearGradient>
<linearGradient id="paint12_linear_250:749" x1="114.293" y1="41.7934" x2="114.293" y2="57.2459" gradientUnits="userSpaceOnUse">
<stop stop-color="#DFDFDF"/>
<stop offset="0.497917" stop-color="#E3E9ED"/>
<stop offset="1" stop-color="#858585"/>
</linearGradient>
<linearGradient id="paint13_linear_250:749" x1="93.03" y1="41.8353" x2="93.03" y2="57.2398" gradientUnits="userSpaceOnUse">
<stop stop-color="#DFDFDF"/>
<stop offset="0.497917" stop-color="#E3E9ED"/>
<stop offset="1" stop-color="#858585"/>
</linearGradient>
<linearGradient id="paint14_linear_250:749" x1="182.551" y1="41.8007" x2="182.551" y2="57.3069" gradientUnits="userSpaceOnUse">
<stop stop-color="#DFDFDF"/>
<stop offset="0.497917" stop-color="#E3E9ED"/>
<stop offset="1" stop-color="#858585"/>
</linearGradient>
<linearGradient id="paint15_linear_250:749" x1="103.643" y1="41.7259" x2="103.643" y2="57.1782" gradientUnits="userSpaceOnUse">
<stop stop-color="#DFDFDF"/>
<stop offset="0.497917" stop-color="#E3E9ED"/>
<stop offset="1" stop-color="#858585"/>
</linearGradient>
<linearGradient id="paint16_linear_250:749" x1="173.407" y1="41.8033" x2="173.407" y2="57.2333" gradientUnits="userSpaceOnUse">
<stop stop-color="#DFDFDF"/>
<stop offset="0.497917" stop-color="#E3E9ED"/>
<stop offset="1" stop-color="#858585"/>
</linearGradient>
</defs>
</svg>
