<svg id="bold" enable-background="new 0 0 24 24" height="512" viewBox="0 0 24 24" width="512" xmlns="http://www.w3.org/2000/svg"><path d="m19.25 0h-14.5c-1.517 0-2.75 1.233-2.75 2.75v18.5c0 1.517 1.233 2.75 2.75 2.75h14.5c1.517 0 2.75-1.233 2.75-2.75v-18.5c0-1.517-1.233-2.75-2.75-2.75zm-10.25 21h-3.25c-.414 0-.75-.336-.75-.75v-2.5h4zm0-4.75h-4v-3.5h4zm0-5h-4v-2.5c0-.414.336-.75.75-.75h3.25zm10 9c0 .414-.336.75-.75.75h-7.75v-3.25h8.5zm0-4h-8.5v-3.5h8.5zm0-5h-8.5v-3.25h7.75c.414 0 .75.336.75.75z"/></svg>