<?xml version="1.0" encoding="iso-8859-1"?>
<!DOCTYPE svg PUBLIC "-//W3C//DTD SVG 1.1//EN" "http://www.w3.org/Graphics/SVG/1.1/DTD/svg11.dtd">
<svg version="1.1" id="Capa_1" xmlns="http://www.w3.org/2000/svg" xmlns:xlink="http://www.w3.org/1999/xlink" x="0px" y="0px"
	 width="487.688px" height="487.688px" viewBox="0 0 487.688 487.688" style="enable-background:new 0 0 487.688 487.688;"
	 xml:space="preserve">
	<g>
		<path d="M243.844,487.688c134.459,0,243.844-109.385,243.844-243.844C487.688,109.395,378.303,0,243.844,0
			C109.386,0,0,109.395,0,243.844C0,378.303,109.386,487.688,243.844,487.688z M108.018,112.264V77.131
			c6.101-4.982,12.498-9.601,19.125-13.904v42.458h77.074l-6.512-71.958c6.216-1.367,12.518-2.438,18.915-3.251l6.799,75.219h40.736
			l6.799-75.228c6.398,0.803,12.709,1.874,18.906,3.232l-6.514,71.996h76.777V62.969c6.627,4.274,13.025,8.883,19.125,13.837v35.63
			c37.705,36.481,58.57,84.523,58.57,136.15c0,51.771-20.539,102.004-56.369,137.826c-0.135,0.133-0.326,0.189-0.469,0.314v22.777
			c-6.102,5.059-12.498,9.744-19.125,14.125v-34.406h-76.922l5.834,64.576c-6.207,1.387-12.518,2.494-18.906,3.336l-6.139-67.912
			h-40.43l-6.177,68.324c-6.397-0.736-12.728-1.713-18.934-2.994l5.91-65.33h-77.208v36.365
			c-6.626-4.207-13.014-8.768-19.125-13.645v-28.812c-36.586-36.328-56.82-83.854-56.82-134.535
			C52.929,197.37,73.048,148.075,108.018,112.264z"/>
		<path d="M408.863,192.264c-8.529-23.992-22.49-45.996-41.404-64.709c-1.875-0.459-3.539-1.358-4.791-2.744h-240.45
			c-18.656,18.886-32.474,42.123-40.87,67.425c25.006-2.362,82.18-6.607,170.404-6.607
			C326.971,185.627,383.504,189.921,408.863,192.264z"/>
		<path d="M252.432,282.85c109.691-1.234,152.828-12.68,165.412-17.061c0.564-5.699,0.85-11.436,0.85-17.203
			c0-12.459-1.434-24.68-4.062-36.547c-19.326-1.96-79.465-7.277-162.879-7.277c-96.6,0-156.72,5.279-175.826,7.258
			c-2.496,11.943-3.873,24.184-3.873,36.576c0,5.863,0.315,11.676,0.918,17.434C90.194,271.326,143.227,284.131,252.432,282.85z"/>
		<path d="M366.512,370.088c1.453-0.898,3.07-1.549,4.916-1.549c0.182,0,0.314,0.086,0.496,0.096
			c21.113-22.664,35.697-51.111,42.439-81.721c-21.918,5.918-68.602,14.018-161.693,15.061c-5.115,0.057-10.136,0.086-15.003,0.086
			c-87.631,0-137.184-8.941-161.033-15.119c7.268,31.088,23.189,59.756,46.895,83.137h242.983V370.088z"/>
	</g>
</svg>
