<svg enable-background="new 0 0 512 512" height="512" viewBox="0 0 512 512"
     width="512" xmlns="http://www.w3.org/2000/svg">
  <path d="m237.044 300.138c-17.316-33.559-59.112-46.334-93.849-27.71-34.589 18.542-48.487 61.23-30.979 95.16 17.256 33.443 58.997 46.394 93.849 27.71 34.588-18.542 48.486-61.231 30.979-95.16z"/><path d="m510.264 126.975-62.159-117.788c-3.864-7.324-12.933-10.129-20.258-6.269l-171.848 90.586c-7.325 3.861-10.135 12.927-6.28 20.255l15.832 30.088-53.14 27.935-15.806-30.037c-3.857-7.327-12.94-10.153-20.272-6.281l-82.88 43.726c-88.193 46.488-120.187 157.245-68.927 243.928l-11.264 11.259c-17.51 17.503-17.515 45.838 0 63.344 17.466 17.458 45.884 17.459 63.351 0l11.674-11.669c51.927 29.619 117.695 31.666 173.764-.403 72.813-41.655 102.882-126.539 80.877-201.204-7.754-26.31 4.158-55.289 29.891-68.572l131.132-68.606c7.358-3.85 10.188-12.95 6.313-20.292zm-454.856 349.527c-5.775 5.77-15.167 5.77-20.94 0-5.779-5.778-5.781-15.127 0-20.906l7.716-7.712c6.486 7.604 13.539 14.54 21.052 20.794zm164.83-54.762c-49.499 26.535-109.671 8.07-134.68-40.394-24.974-48.401-5.476-109.123 43.465-135.359 49.518-26.546 109.673-8.068 134.68 40.394v.001c24.972 48.4 5.474 109.121-43.465 135.358z"/><path d="m176.808 71.868c3.86 7.334 12.931 10.146 20.258 6.289 7.331-3.857 10.146-12.929 6.289-20.26l-22.174-42.143c-3.858-7.331-12.927-10.147-20.258-6.289-7.331 3.857-10.146 12.929-6.289 20.26z"/><path d="m110.9 110.07c49.269 10.7 46.218 10.179 48.479 10.179 6.904 0 13.117-4.797 14.643-11.819 1.758-8.096-3.379-16.084-11.474-17.842l-45.281-9.834c-8.097-1.761-16.082 3.38-17.841 11.475-1.758 8.095 3.38 16.083 11.474 17.841z"/><path d="m235.077 76.337c7.659 3.139 16.424-.525 19.564-8.196l17.823-43.525c3.139-7.666-.53-16.426-8.196-19.565-7.668-3.142-16.425.53-19.564 8.196l-17.823 43.525c-3.139 7.666.531 16.426 8.196 19.565z"/>
</svg>
